<?xml version="1.0" encoding="UTF-8"?>
<svg version="1.1" xmlns="http://www.w3.org/2000/svg" width="2400" height="723">
<path d="M0 0 C1.39992188 0.62841797 1.39992188 0.62841797 2.828125 1.26953125 C10.74007598 5.19159838 16.82974947 10.81454646 23 17 C23.80566406 17.7940625 24.61132812 18.588125 25.44140625 19.40625 C34.92970773 29.30708632 41.16261715 41.70715846 47 54 C47.24532471 53.49774902 47.49064941 52.99549805 47.7434082 52.47802734 C60.56104309 26.51129252 77.98520363 6.81715087 106 -3 C133.95606471 -11.4990713 163.73623162 -10.17408628 190 3 C197.96487541 7.27889709 204.49219629 12.76533403 211 19 C211.86625 19.804375 212.7325 20.60875 213.625 21.4375 C223.85375352 32.47378669 229.86256005 43.89097275 233.8125 58.3125 C234.00739014 59.00915771 234.20228027 59.70581543 234.40307617 60.42358398 C238.76534866 77.6669608 238.29351475 95.62834525 238.2746582 113.26831055 C238.27792578 115.9787896 238.28413588 118.68926033 238.29014587 121.3997345 C238.30279567 127.95291099 238.30469935 134.50604633 238.30234561 141.05923297 C238.30055354 146.38531146 238.30233096 151.71137758 238.30657005 157.03745461 C238.30716524 157.79899443 238.30776043 158.56053425 238.30837366 159.34515104 C238.30958552 160.89265531 238.31079965 162.44015958 238.31201603 163.98766384 C238.32285121 178.44449737 238.32074653 192.90130747 238.31463119 207.35814229 C238.30944929 220.5763449 238.32075809 233.79447411 238.33972941 247.01266219 C238.35910187 260.61523207 238.36736588 274.21776718 238.36360615 287.82035094 C238.3616953 295.44558849 238.36417168 303.07076335 238.37832069 310.69598961 C238.39022687 317.17722319 238.39164692 323.65835533 238.37953053 330.13959029 C238.3736403 333.44386885 238.37417331 336.74792335 238.38453293 340.0521965 C238.39495857 343.63540897 238.38693317 347.21812104 238.3742218 350.80131531 C238.38159609 351.84254899 238.38897037 352.88378268 238.39656812 353.9565689 C238.35327991 359.74864219 237.82404142 363.90052057 235 369 C230.16870688 373.58972846 226.57218239 374.12614297 220.0534668 374.16113281 C219.35065582 374.16609772 218.64784485 374.17106262 217.92373657 374.17617798 C215.59888732 374.19078124 213.27410633 374.19759887 210.94921875 374.203125 C209.33120217 374.2088784 207.71318561 374.21463611 206.09516907 374.22039795 C202.70154503 374.23090301 199.30794465 374.23674877 195.91430664 374.24023438 C191.57320219 374.24571505 187.23241204 374.26973588 182.89140606 374.29820633 C179.54817299 374.31686348 176.20501512 374.32203996 172.86173439 374.32357025 C171.26180111 374.32659087 169.66186897 374.33459945 168.06198692 374.34775543 C165.81932298 374.36487917 163.57742024 374.36292057 161.3347168 374.35644531 C159.42301949 374.36191376 159.42301949 374.36191376 157.47270203 374.36749268 C152.39069329 373.82969791 149.14712901 372.24013947 145.6875 368.5 C142.58899555 363.90962304 142.86373988 359.65843411 142.88647461 354.32133484 C142.88632575 353.42366184 142.88617689 352.52598883 142.88602352 351.60111362 C142.88672035 348.57999946 142.89457376 345.55894544 142.90234375 342.5378418 C142.90426229 340.37607864 142.90572639 338.21431503 142.9067688 336.05255127 C142.90993612 331.38721081 142.91621496 326.72188833 142.92483521 322.05655479 C142.93835395 314.66138723 142.94425228 307.26622567 142.94897461 299.87104797 C142.96103242 282.81205417 142.98297609 265.75307464 143.00520325 248.6940918 C143.02543701 233.11015778 143.0435146 217.52622933 143.05341816 201.94228488 C143.05836497 194.61162485 143.06817323 187.28099315 143.08184814 179.95034444 C143.08938776 175.35390043 143.09263946 170.75746012 143.0948143 166.16101074 C143.09666316 164.05295901 143.10021632 161.94490785 143.10574722 159.83686256 C143.13265902 149.23132965 143.02541878 138.64887393 142.57202148 128.05183411 C142.53526086 127.15563659 142.49850023 126.25943908 142.46062565 125.33608407 C141.868732 112.98055698 139.74662702 100.98914097 131.6875 91.1875 C121.72226393 83.07626134 111.82381401 80.9218854 99 81 C87.41541954 82.41852006 76.31402232 87.77477587 69 97 C53.72975168 117.8767163 55.85071941 146.93365913 55.8581543 171.57104492 C55.85511484 173.68201774 55.85159124 175.7929899 55.84762573 177.90396118 C55.83980269 182.41302243 55.83461731 186.92207602 55.83133507 191.43114281 C55.82537781 198.56262456 55.80879836 205.69405769 55.78999329 212.82551575 C55.78365827 215.27494714 55.77733262 217.72437856 55.77101612 220.17381001 C55.76785031 221.39929542 55.7646845 222.62478084 55.76142275 223.88740218 C55.71944087 240.46602371 55.68631706 257.04461971 55.67407227 273.62329102 C55.66570037 284.84384894 55.64325629 296.06428328 55.6047166 307.28477937 C55.58495464 313.2126047 55.57255261 319.1402453 55.57755089 325.0681057 C55.58218605 330.63088849 55.56845393 336.19331925 55.54053879 341.75603104 C55.53361251 343.79662356 55.53351582 345.83725237 55.54073906 347.87784386 C55.54960195 350.662529 55.53397625 353.4460464 55.51225281 356.2306366 C55.52069534 357.0381174 55.52913788 357.8455982 55.53783625 358.67754811 C55.46258954 363.89083775 54.44996505 366.86593676 51 371 C46.55123882 373.9452169 43.00368624 374.37821046 37.72875977 374.38818359 C36.67629562 374.39606903 36.67629562 374.39606903 35.60256958 374.40411377 C33.29861748 374.41724511 30.99536457 374.40859966 28.69140625 374.3984375 C27.0800717 374.40046045 25.46873805 374.40337373 23.85740662 374.40713501 C20.48582209 374.41154925 17.11447658 374.40515735 13.74291992 374.39111328 C9.43445294 374.37403555 5.12654726 374.38385908 0.81810093 374.40183067 C-2.5080432 374.41270474 -5.8340557 374.40920539 -9.16020393 374.4014473 C-10.74812958 374.39945457 -12.3360674 374.40187178 -13.92397881 374.40888596 C-16.14942651 374.41655897 -18.37398337 374.40481541 -20.59936523 374.38818359 C-21.86256088 374.38579681 -23.12575653 374.38341003 -24.42723083 374.38095093 C-29.79589099 373.8085109 -33.59073359 372.63500373 -37.17387104 368.47791672 C-39.54406053 363.96382061 -39.55743923 360.52132889 -39.50552368 355.50259399 C-39.5116138 354.55320525 -39.51770392 353.6038165 -39.52397859 352.62565839 C-39.53958134 349.44761746 -39.52678839 346.27032989 -39.51416016 343.09228516 C-39.51962106 340.81196621 -39.52686252 338.53165093 -39.53575134 336.25134277 C-39.55109674 331.34043773 -39.55388663 326.42974164 -39.54698563 321.5188179 C-39.53619689 313.74271746 -39.55358682 305.96683498 -39.57479858 298.19076538 C-39.6016367 287.27739636 -39.61598456 276.36408476 -39.61914062 265.45068359 C-39.61934461 264.75846971 -39.6195486 264.06625583 -39.61975877 263.35306577 C-39.61996214 262.6600534 -39.62016551 261.96704102 -39.62037504 261.25302827 C-39.62328811 251.45302156 -39.6300783 241.6530279 -39.64160156 231.85302734 C-39.64240686 231.16469317 -39.64321215 230.476359 -39.64404185 229.76716621 C-39.65784422 218.24979754 -39.67968463 206.73245331 -39.7054714 195.21510541 C-39.7219033 187.49723314 -39.72739864 179.77945464 -39.72388101 172.06156659 C-39.72344136 167.24032946 -39.73104759 162.41912714 -39.74055672 157.59790039 C-39.74322076 155.3760632 -39.74252002 153.15421878 -39.73804665 150.93238449 C-39.56354018 117.85858965 -39.56354018 117.85858965 -54.55078125 89.265625 C-62.53371633 81.56847518 -72.31353786 80.40394768 -82.93603516 80.52954102 C-93.87327676 80.93683651 -103.26410396 83.98144622 -111 92 C-123.82411758 108.36092779 -126.16387946 130.4367134 -126.13803101 150.62811279 C-126.14226293 152.00052734 -126.14226293 152.00052734 -126.14658034 153.40066743 C-126.15485025 156.43736785 -126.15625795 159.47403147 -126.15771484 162.51074219 C-126.16238838 164.69949952 -126.16753283 166.88825589 -126.17311096 169.07701111 C-126.18435104 173.77553973 -126.19280454 178.47406216 -126.19923019 183.17259979 C-126.2099437 190.60176431 -126.23019455 198.03088386 -126.25234985 205.46002197 C-126.31417106 226.58026375 -126.36839363 247.70049511 -126.40136719 268.82080078 C-126.41969835 280.49651919 -126.44860757 292.17216115 -126.4893719 303.84782338 C-126.51045177 310.02276223 -126.52590074 316.19760475 -126.52817917 322.37258148 C-126.5303227 328.17406374 -126.54616197 333.97534481 -126.57256889 339.77676582 C-126.57977216 341.90604354 -126.5818579 344.0353456 -126.57846642 346.1646328 C-126.57457768 349.06993481 -126.58900681 351.97459234 -126.60800171 354.87982178 C-126.60247201 355.723205 -126.59694232 356.56658823 -126.59124506 357.43552852 C-126.64674423 362.34877823 -127.24771241 365.76038408 -130 370 C-137.31815868 375.4390495 -145.82498342 374.56456348 -154.5390625 374.49609375 C-156.14993352 374.49624894 -157.76080492 374.4977412 -159.37167358 374.50050354 C-162.73558201 374.50188291 -166.09906167 374.48940478 -169.46289062 374.46655273 C-173.76469744 374.43812333 -178.06579511 374.44092389 -182.3676548 374.45364285 C-185.68948377 374.46061096 -189.01115004 374.45279864 -192.33295822 374.44038582 C-193.91891226 374.43588553 -195.50488383 374.43552203 -197.09083939 374.43945122 C-199.30913133 374.44237586 -201.52645914 374.42579997 -203.74462891 374.40405273 C-205.00401276 374.39864975 -206.26339661 374.39324677 -207.5609436 374.38768005 C-212.52679672 373.82788632 -215.67006369 372.38003622 -219.14314884 368.77611679 C-221.35142542 365.47459547 -221.50183238 363.73528801 -221.50615788 359.79488468 C-221.51720556 358.53809062 -221.52825325 357.28129656 -221.53963572 355.98641783 C-221.53167864 354.59430103 -221.52334096 353.20218635 -221.5146637 351.81007385 C-221.51998854 350.32922436 -221.52705387 348.84838027 -221.53571075 347.3675465 C-221.55437352 343.29714607 -221.54802073 339.22710857 -221.53755772 335.15669286 C-221.53057596 330.7673628 -221.54655586 326.37810807 -221.55955505 321.98880005 C-221.5812176 313.38942322 -221.58106238 304.79017861 -221.57292951 296.19078345 C-221.56663422 289.20247744 -221.56776221 282.21421005 -221.57420158 275.22590446 C-221.57510324 274.23195957 -221.57600489 273.23801467 -221.57693387 272.21395023 C-221.57878504 270.19486927 -221.5806476 268.17578833 -221.58252143 266.1567074 C-221.59910781 247.21476398 -221.59037363 228.27289499 -221.57353585 209.33095603 C-221.55883867 191.9952714 -221.57346608 174.65976007 -221.60230602 157.32409776 C-221.63168735 139.5307163 -221.64267595 121.73741486 -221.63312382 103.9440102 C-221.63210125 101.93197725 -221.63110664 99.91994428 -221.6301403 97.9079113 C-221.62966391 96.91791493 -221.62918752 95.92791855 -221.6286967 94.90792229 C-221.62653087 87.9275475 -221.63634564 80.94724834 -221.65091133 73.96689034 C-221.66841308 65.46067938 -221.66834842 56.95468942 -221.64555968 48.44848723 C-221.63439769 44.10742757 -221.63129896 39.76675757 -221.64986038 35.42571449 C-221.66663067 31.45248266 -221.66036175 27.47998138 -221.63564359 23.50679719 C-221.63074844 22.06876381 -221.63430835 20.63067188 -221.64713103 19.19268734 C-221.74714453 7.10541314 -221.74714453 7.10541314 -218.60993195 3.19005775 C-213.88778632 -0.77241018 -210.2812112 -1.25121802 -204.19360352 -1.2746582 C-203.52951477 -1.27976913 -202.86542603 -1.28488007 -202.18121338 -1.29014587 C-199.99701803 -1.30398836 -197.81314011 -1.30308924 -195.62890625 -1.30078125 C-194.10342798 -1.30467105 -192.57795078 -1.3090063 -191.05247498 -1.31376648 C-187.85908493 -1.32121712 -184.66580547 -1.32094577 -181.47241211 -1.31567383 C-177.38915718 -1.30987981 -173.30635595 -1.32681381 -169.223176 -1.3500185 C-166.07380039 -1.36478175 -162.92453341 -1.36562405 -159.77512932 -1.36250877 C-158.27010131 -1.36302066 -156.765067 -1.36823337 -155.26007271 -1.37832069 C-153.1516826 -1.39071906 -151.04416811 -1.38387424 -148.93579102 -1.37231445 C-147.73841812 -1.37294388 -146.54104523 -1.3735733 -145.30738831 -1.3742218 C-140.5509807 -0.83604749 -137.27104358 0.91180504 -133.66308594 4.00073242 C-131.13723329 8.55594377 -131.39677873 12.85881881 -131.390625 17.98828125 C-131.37408875 19.04661667 -131.35755249 20.10495209 -131.34051514 21.19535828 C-131.29202195 24.56779782 -131.27066054 27.93978635 -131.25 31.3125 C-131.22184154 33.60223625 -131.19191429 35.89195147 -131.16015625 38.18164062 C-131.08626271 43.78767851 -131.03462784 49.39358948 -131 55 C-130.29858887 53.48345825 -130.29858887 53.48345825 -129.58300781 51.9362793 C-128.95646122 50.58638818 -128.32982905 49.23653678 -127.703125 47.88671875 C-127.39648926 47.22313354 -127.08985352 46.55954834 -126.77392578 45.87585449 C-117.18815136 25.25632258 -101.4589542 6.5802692 -79.69140625 -1.6953125 C-54.01772505 -10.92393047 -25.09383801 -11.34423506 0 0 Z " fill="#211E1E" transform="translate(696,41)"/>
<path d="M0 0 C1.41815506 0.00031723 1.41815506 0.00031723 2.86495972 0.00064087 C17.61705536 0.03352478 31.61307305 0.86550108 46 4.375 C46.80002441 4.55691895 47.60004883 4.73883789 48.42431641 4.92626953 C76.11467591 11.29271956 102.74292209 25.64534902 118.6875 49.75 C125.99707979 61.71113056 130.29872228 74.41716088 132.6875 88.1875 C132.80689941 88.86111572 132.92629883 89.53473145 133.04931641 90.22875977 C135.11460388 103.10318204 135.14848224 116.28486186 135.15771484 129.28955078 C135.16240083 130.80612327 135.16754722 132.32269439 135.17311096 133.83926392 C135.1842621 137.06928495 135.19275713 140.29929747 135.19923019 143.52933121 C135.21004993 148.65084366 135.23032566 153.77229332 135.25234985 158.89376831 C135.31382294 173.44493752 135.36828444 187.99609951 135.40136719 202.54736328 C135.41977953 210.61142047 135.44878451 218.67536857 135.4893719 226.73934543 C135.51030504 230.99067751 135.52587981 235.24187312 135.52817917 239.49325943 C135.5303447 243.49081773 135.5464053 247.48809039 135.57256889 251.48556137 C135.57968725 252.9406552 135.58189977 254.39578392 135.57846642 255.85089111 C135.52744937 281.61061001 145.81549421 299.35388246 160.15234375 319.6328125 C162.99304248 323.8488178 164.68875908 326.9972182 164.4765625 332.25390625 C162.40217722 341.48662106 148.92095765 349.51538139 142 355.375 C139.58059099 357.43429921 137.16467676 359.4976551 134.75 361.5625 C134.17209717 362.05556641 133.59419434 362.54863281 132.9987793 363.05664062 C129.35104581 366.18015825 125.78429535 369.37364683 122.25 372.625 C105.40383768 388.05280006 105.40383768 388.05280006 95.578125 387.80859375 C91.0133936 387.04088892 88.32642589 384.43732403 85 381.375 C83.77603516 380.32505859 83.77603516 380.32505859 82.52734375 379.25390625 C74.26222764 372.06088665 67.56670139 364.06776517 61.1875 355.1875 C60.61580078 354.40697266 60.04410156 353.62644531 59.45507812 352.82226562 C56.79429372 349.135938 54.38028656 345.76202543 53 341.375 C48.77793735 344.99755526 44.66347617 348.69547384 40.65161133 352.55078125 C24.69679222 367.72857198 6.2509024 379.40103387 -15 385.375 C-16.03640625 385.67148437 -17.0728125 385.96796875 -18.140625 386.2734375 C-50.04434251 394.21007659 -88.01469189 392.60942128 -116.9921875 376.26953125 C-121.65056062 373.33536117 -125.83228655 369.95937413 -130 366.375 C-130.98355469 365.59125 -131.96710938 364.8075 -132.98046875 364 C-150.97536657 348.98000762 -159.10094637 323.79361556 -162 301.375 C-162.49207938 295.63242788 -162.48589711 289.88425601 -162.4375 284.125 C-162.43479095 283.36385895 -162.43208191 282.6027179 -162.42929077 281.81851196 C-162.36383107 269.65335975 -161.50656385 258.0931012 -158 246.375 C-157.62617188 245.11558594 -157.25234375 243.85617187 -156.8671875 242.55859375 C-151.02701183 224.9413751 -141.61457555 210.80117508 -129 197.375 C-128.484375 196.78332031 -127.96875 196.19164062 -127.4375 195.58203125 C-117.46812679 184.6520674 -103.31529923 177.37297397 -90 171.375 C-88.8346875 170.84261719 -87.669375 170.31023437 -86.46875 169.76171875 C-56.79466962 157.05832372 -23.04256989 153.95484644 8.75 150.5 C9.75435089 150.39050018 10.75870178 150.28100037 11.79348755 150.16818237 C14.66896424 149.85807356 17.54512813 149.55588882 20.421875 149.2578125 C21.27251022 149.16751266 22.12314545 149.07721283 22.9995575 148.98417664 C28.02823525 148.47858964 32.94583084 148.29301305 38 148.375 C37.93008977 143.78873422 37.84165936 139.20329291 37.73754883 134.61767578 C37.70471478 133.06438512 37.6765604 131.51098699 37.65356445 129.95751953 C37.42192503 114.7087457 36.48291567 98.49496957 26.21875 86.25 C15.36765088 75.9325615 1.22319861 73.75598814 -13.1015625 74.06640625 C-26.43708014 74.69288963 -39.0140819 79.55861513 -48.875 88.6875 C-55.63222458 96.14826128 -59.00108918 104.34266037 -61.55688477 113.9543457 C-62.99669909 118.8753586 -64.93656192 121.89775258 -68.69750977 125.37011719 C-75.62506248 128.39353008 -85.51833665 125.92528705 -92.8125 125.1328125 C-94.02139893 125.00437958 -95.23029785 124.87594666 -96.47583008 124.74362183 C-99.02092311 124.47189852 -101.56576105 124.19777633 -104.11035156 123.92138672 C-107.9868812 123.50142123 -111.86442626 123.09201195 -115.7421875 122.68359375 C-118.22402658 122.41730192 -120.70579979 122.15039535 -123.1875 121.8828125 C-124.91286987 121.70143234 -124.91286987 121.70143234 -126.6730957 121.51638794 C-143.44231978 119.67306685 -143.44231978 119.67306685 -148 115.875 C-151.75174824 111.18531469 -151.39289704 107.21320445 -151 101.375 C-150.40236867 97.92127785 -149.50217898 94.60661967 -148.5 91.25 C-148.23372803 90.3420166 -147.96745605 89.4340332 -147.69311523 88.49853516 C-145.06197525 79.92681558 -141.44226037 72.14278896 -137 64.375 C-136.45730469 63.405625 -135.91460937 62.43625 -135.35546875 61.4375 C-117.59928735 31.71425718 -86.20023485 14.21051618 -53.46875 5.71826172 C-35.72544281 1.42631854 -18.20550583 -0.03769586 0 0 Z M-43 224.375 C-43.66386719 224.93960938 -44.32773438 225.50421875 -45.01171875 226.0859375 C-55.88523186 236.13391274 -61.50875873 251.12436585 -62.2578125 265.66796875 C-62.8062833 282.22769879 -60.24689574 297.36966196 -48.875 310.125 C-40.30776261 318.19503165 -29.94994069 320.76834685 -18.54296875 320.65234375 C-4.69632958 319.56842823 7.63282147 312.39952439 17 302.375 C35.53707225 279.15747097 38.37143375 253.07263671 38.125 224.4375 C38.11494319 222.38607211 38.10582215 220.33463941 38.09765625 218.28320312 C38.0758728 213.31368083 38.04149408 208.3443952 38 203.375 C10.18544502 203.10556131 -20.9570997 205.52400179 -43 224.375 Z " fill="#211E1E" transform="translate(262,29.625)"/>
<path d="M0 0 C1.3812204 0.00081573 1.3812204 0.00081573 2.79034424 0.00164795 C40.6227408 0.10409037 78.50441311 8.50380342 106.5625 35.375 C107.27277344 36.02210937 107.98304688 36.66921875 108.71484375 37.3359375 C119.92956355 47.88337071 126.35732377 62.07709492 130.3125 76.75 C130.51117676 77.47960937 130.70985352 78.20921875 130.91455078 78.9609375 C134.1550304 91.75625036 134.86004064 104.58866151 134.84960938 117.72680664 C134.85565257 119.30234626 134.86258151 120.87788269 134.87031555 122.45341492 C134.88506525 125.81387827 134.89391825 129.17428366 134.89802551 132.53477669 C134.90481221 137.86206448 134.92664893 143.1892296 134.95056152 148.51646423 C135.00338841 160.78263714 135.0369854 173.04884777 135.07032013 185.31508636 C135.101108 196.57159087 135.13608574 207.828042 135.18663073 219.08447737 C135.20979709 224.36678913 135.22367375 229.64901436 135.23012543 234.93137181 C135.23611434 238.23056941 135.25025258 241.52969768 135.26646996 244.82885933 C135.27228505 246.34362373 135.27483105 247.8584053 135.27363014 249.37318039 C135.26091032 271.83822312 139.26512996 290.57910915 152.83203125 308.8046875 C153.41404297 309.58996826 153.99605469 310.37524902 154.59570312 311.18432617 C155.75433508 312.73293125 156.92817681 314.27030924 158.11914062 315.79418945 C161.82558387 320.70413017 164.10641273 325.15597308 164.5625 331.375 C162.38141127 341.55341407 150.99336544 347.87535495 143.34765625 354.05859375 C140.50718638 356.42100418 137.78074101 358.87329028 135.0625 361.375 C130.60067792 365.48139955 125.99089847 369.33395803 121.26953125 373.13671875 C117.67694196 376.10721466 114.25918176 379.25000264 110.8515625 382.4296875 C106.88016765 385.80469541 103.86154295 387.79967853 98.5625 387.75 C97.325 387.76160156 97.325 387.76160156 96.0625 387.7734375 C90.32649684 386.859262 86.41033533 382.65144792 82.3125 378.8125 C81.73894775 378.27584717 81.16539551 377.73919434 80.57446289 377.1862793 C72.14864867 369.22089208 65.18853609 360.72324147 58.63452148 351.17504883 C57.90664429 350.115802 57.90664429 350.115802 57.1640625 349.03515625 C56.73432129 348.40230713 56.30458008 347.76945801 55.86181641 347.11743164 C54.55487263 345.36477142 53.14521832 343.87942028 51.5625 342.375 C51.0778125 342.87128906 50.593125 343.36757813 50.09375 343.87890625 C49.4234375 344.55824219 48.753125 345.23757813 48.0625 345.9375 C47.4128125 346.59878906 46.763125 347.26007813 46.09375 347.94140625 C14.21442085 378.59082301 -20.35503706 390.96854602 -64.4375 390.375 C-89.70558843 389.47102354 -113.38551023 381.21372879 -132.4375 364.375 C-133.06269531 363.84519531 -133.68789063 363.31539063 -134.33203125 362.76953125 C-153.54237144 345.26877637 -161.31750868 316.90556465 -162.56298828 291.85058594 C-163.71506121 260.18305365 -156.4131509 230.40666202 -136.4375 205.375 C-135.72980469 204.48296875 -135.02210938 203.5909375 -134.29296875 202.671875 C-99.75040036 161.91292602 -41.42094107 156.21173399 8.1472168 150.64624023 C9.79927634 150.46071126 11.45112355 150.27328442 13.1027832 150.08422852 C15.6356415 149.79537059 18.16921467 149.51383892 20.703125 149.234375 C21.83787262 149.10425018 21.83787262 149.10425018 22.99554443 148.97149658 C28.21099585 148.40923388 33.31656679 148.30360027 38.5625 148.375 C39.48742676 114.95303421 39.48742676 114.95303421 25.4921875 86.1171875 C14.06832038 75.80333176 1.26742818 73.55198642 -13.6953125 74.0625 C-26.38977614 74.76302223 -38.40593291 79.20231467 -47.4375 88.375 C-48.0975 88.375 -48.7575 88.375 -49.4375 88.375 C-49.71078125 88.96023437 -49.9840625 89.54546875 -50.265625 90.1484375 C-51.40598705 92.3151254 -52.70237332 94.05975385 -54.1875 96 C-57.78235667 101.24322998 -59.48265483 106.9457807 -61.25683594 112.99072266 C-62.81935258 118.15367659 -64.46131342 122.36408635 -69.12817383 125.51733398 C-72.38469526 126.72678105 -74.99180492 126.42085446 -78.45703125 126.17578125 C-79.54924736 126.09920036 -79.54924736 126.09920036 -80.66352844 126.02107239 C-91.28260798 125.22789247 -101.87629142 124.10489296 -112.46166992 122.95581055 C-114.92280059 122.69157319 -117.38474836 122.43484792 -119.84741211 122.18530273 C-123.44575318 121.82059798 -127.04118945 121.43431534 -130.63671875 121.04296875 C-131.73360519 120.93550827 -132.83049164 120.82804779 -133.96061707 120.71733093 C-141.13794854 119.90153691 -145.34152932 118.67071072 -150.375 113.3125 C-154.451836 102.04124753 -147.17551392 85.41213242 -142.578125 74.984375 C-128.46314314 44.89171989 -103.23575097 23.04669229 -72.234375 11.55859375 C-63.55459593 8.50295724 -54.74379898 6.06216869 -45.75 4.125 C-45.05165039 3.97393799 -44.35330078 3.82287598 -43.63378906 3.66723633 C-29.1102993 0.73708756 -14.77161003 -0.03295674 0 0 Z M-46.59765625 227.3828125 C-58.15796689 239.90034631 -62.45114308 256.4277139 -62.43359375 273.08203125 C-61.69221299 287.38910243 -58.41059111 301.30203301 -47.5 311.375 C-37.63968716 319.18345583 -26.85766645 321.49126069 -14.4375 320.375 C1.27645085 317.30572539 13.36551985 308.04983318 22.8203125 295.33984375 C37.56265463 272.72183976 38.75947436 247.29007513 38.625 221.0625 C38.61997105 219.33919402 38.61541063 217.61588661 38.61132812 215.89257812 C38.600442 211.72001591 38.58325565 207.54752432 38.5625 203.375 C8.80018935 203.10943274 -23.66177066 206.27616932 -46.59765625 227.3828125 Z " fill="#211E1E" transform="translate(1154.4375,29.625)"/>
<path d="M0 0 C1.60095252 1.52336193 3.18474144 3.06498519 4.75 4.625 C5.50925781 5.36105469 6.26851562 6.09710938 7.05078125 6.85546875 C20.04883819 20.25761037 26.16987217 37.35599634 29.9375 55.3125 C30.1701355 56.40449707 30.1701355 56.40449707 30.4074707 57.51855469 C33.92397392 75.61656906 34.05297138 93.94581445 34.05639648 112.31005859 C34.06403498 114.93378429 34.07246532 117.55750779 34.08161926 120.18122864 C34.10421913 127.24427118 34.11235884 134.30728323 34.11744571 141.37035704 C34.12072477 145.78741233 34.12725924 150.20445911 34.1344471 154.62150955 C34.15396114 166.87906546 34.17040203 179.13661358 34.17332363 191.39418602 C34.1735112 192.17432644 34.17369877 192.95446685 34.17389202 193.75824789 C34.17425824 195.33923157 34.17462194 196.92021525 34.17498314 198.50119893 C34.17516595 199.28584235 34.17534876 200.07048576 34.17553711 200.87890625 C34.17580793 202.05732163 34.17580793 202.05732163 34.17608423 203.25954337 C34.17963845 216.03538312 34.20676151 228.81105571 34.244035 241.58683734 C34.28209646 254.73859277 34.30148083 267.89026497 34.30178314 281.04207671 C34.30236732 288.41300654 34.31083726 295.78373544 34.33978081 303.15461349 C34.36681905 310.07087858 34.36821899 316.98673846 34.35212517 323.90303612 C34.35030438 326.44193197 34.35705777 328.98085038 34.37294388 331.51969719 C34.3932854 334.98084348 34.38292194 338.44057596 34.36473083 341.90170288 C34.38453079 343.41334851 34.38453079 343.41334851 34.40473074 344.95553243 C34.35060343 349.45304219 34.24497427 352.62339106 31.35904217 356.21040344 C26.6207436 360.59556806 22.84222156 360.87782666 16.50048828 360.91552734 C15.78923798 360.92224457 15.07798767 360.92896179 14.34518433 360.93588257 C12.00348852 360.95481658 9.66208001 360.95878435 7.3203125 360.9609375 C5.68512862 360.9673685 4.04994589 360.97409709 2.4147644 360.98110962 C-1.0098131 360.99307078 -4.43428981 360.99679163 -7.85888672 360.99560547 C-12.23583743 360.99540231 -16.6121386 361.02270552 -20.98893547 361.05714989 C-24.36568134 361.07944424 -27.74227149 361.08344224 -31.1190834 361.08238602 C-32.73215092 361.08473812 -34.34522297 361.09353959 -35.95821762 361.10905075 C-38.21983413 361.12876376 -40.48005775 361.12285341 -42.74169922 361.11083984 C-44.02567596 361.11368988 -45.30965271 361.11653992 -46.63253784 361.11947632 C-51.80708848 360.41215925 -55.53594187 358.73340241 -58.9274807 354.56159019 C-60.78143284 350.44497906 -60.66377734 346.82377586 -60.62854004 342.35742188 C-60.63307017 341.42058249 -60.6376003 340.4837431 -60.6422677 339.51851463 C-60.65390158 336.37678542 -60.64424006 333.23548118 -60.63476562 330.09375 C-60.63887068 327.84139735 -60.64433115 325.58904682 -60.65104675 323.33670044 C-60.66278352 318.48202168 -60.66525154 313.62745665 -60.66069031 308.77276611 C-60.65387844 301.0794089 -60.66975657 293.38620091 -60.68908691 285.69287109 C-60.71411634 274.88867002 -60.7308378 264.08449983 -60.73876953 253.28027344 C-60.73927671 252.59478684 -60.73978389 251.90930024 -60.74030644 251.20304132 C-60.74382958 246.34369439 -60.74695762 241.48434725 -60.75 236.625 C-60.75346323 231.1018878 -60.7571149 225.57877581 -60.76123047 220.05566406 C-60.76173308 219.37586817 -60.7622357 218.69607228 -60.76275355 217.99567652 C-60.77154231 206.60147183 -60.79219491 195.20732612 -60.82071257 183.81315231 C-60.838957 176.18445598 -60.84300044 168.5559303 -60.83577728 160.92721748 C-60.83424161 156.14941945 -60.84512693 151.37170453 -60.85915565 146.59392929 C-60.86311611 144.39999584 -60.86210675 142.20604602 -60.85538292 140.01211929 C-60.46374139 106.03578755 -60.46374139 106.03578755 -75.25 76.625 C-75.75015625 76.07328125 -76.2503125 75.5215625 -76.765625 74.953125 C-83.59295312 68.25836635 -92.51382286 66.40878465 -101.8125 66.125 C-113.57268288 66.50861453 -122.53142374 70.76198496 -131.25 78.625 C-151.53804507 101.70743618 -151.40086035 136.23133664 -151.3918457 165.12109375 C-151.39488365 167.15280736 -151.39840684 169.18452029 -151.40237427 171.2162323 C-151.41021003 175.56328403 -151.41538767 179.91032775 -151.41866493 184.25738525 C-151.42461276 191.13239002 -151.44118449 198.00734409 -151.46000671 204.88232422 C-151.46634219 207.24212644 -151.47266783 209.60192869 -151.47898388 211.96173096 C-151.48214969 213.14259529 -151.4853155 214.32345963 -151.48857725 215.54010773 C-151.53057897 231.52721823 -151.56367356 247.51430271 -151.57592773 263.50146484 C-151.58430052 274.31438469 -151.60675054 285.12717632 -151.6452834 295.94003201 C-151.66504754 301.65439886 -151.67744681 307.36857406 -151.67244911 313.08297729 C-151.6678127 318.4479185 -151.68155293 323.81249482 -151.70946121 329.17736244 C-151.71638622 331.14538691 -151.71648552 333.113449 -151.70926094 335.0814724 C-151.70039452 337.7678042 -151.71602935 340.45292665 -151.73774719 343.13916016 C-151.72508339 344.30675951 -151.72508339 344.30675951 -151.71216375 345.49794674 C-151.78965663 350.68070933 -152.95231419 353.64556916 -156.25 357.625 C-160.72084888 360.58933716 -164.3102259 361.00667202 -169.61303711 361.02905273 C-170.32443344 361.03591599 -171.03582977 361.04277924 -171.76878357 361.04985046 C-174.10517709 361.06805433 -176.44089497 361.06429037 -178.77734375 361.05859375 C-180.41109941 361.06315871 -182.04485315 361.06846522 -183.67860413 361.07447815 C-187.09725766 361.08339668 -190.51567743 361.08100064 -193.93432617 361.07104492 C-198.30343823 361.05955769 -202.67174176 361.07976879 -207.04074764 361.10896206 C-210.41322407 361.12735679 -213.7855079 361.12702511 -217.15802193 361.12132454 C-218.76828711 361.12117172 -220.37856568 361.12718349 -221.98878288 361.13961601 C-224.24555246 361.15458683 -226.50084331 361.14380647 -228.75756836 361.12670898 C-230.0385289 361.12654282 -231.31948944 361.12637665 -232.63926697 361.12620544 C-237.23650902 360.48806279 -239.46008521 359.31053569 -243.25 356.625 C-246.0672738 352.83482898 -246.62585389 350.13165567 -246.63031673 345.45111942 C-246.63875668 344.20129215 -246.64719662 342.95146488 -246.65589231 341.66376406 C-246.65009724 340.27950872 -246.64401622 338.89525456 -246.63768005 337.51100159 C-246.64185274 336.0384046 -246.6473299 334.56581083 -246.65399987 333.09322304 C-246.66848186 329.04567767 -246.66420121 324.99833546 -246.65683305 320.95077884 C-246.65211048 316.58600177 -246.66460314 312.22126923 -246.67485046 307.85650635 C-246.69206162 299.30527422 -246.69287369 290.75411551 -246.68763756 282.20287056 C-246.68359899 275.25366227 -246.68503569 268.30447572 -246.69038582 261.35526848 C-246.69113424 260.3668743 -246.69188266 259.37848013 -246.69265376 258.36013461 C-246.69418521 256.35232766 -246.69572356 254.34452072 -246.69726873 252.33671378 C-246.71100212 233.50065276 -246.70555016 214.66463324 -246.69408352 195.82857316 C-246.68414989 178.58991034 -246.69709258 161.35135484 -246.72101771 144.11270858 C-246.74539002 126.41877596 -246.75502121 108.72489336 -246.74836498 91.03094429 C-246.74486865 81.09443061 -246.74713211 71.1579995 -246.76461601 61.22149849 C-246.77931463 52.76289342 -246.78000413 44.30442905 -246.7625451 35.84582681 C-246.75401344 31.5291176 -246.75193815 27.21265997 -246.76719666 22.89596367 C-246.78098953 18.94503103 -246.77635078 14.99456676 -246.75695742 11.04366159 C-246.75318042 9.61370169 -246.75616815 8.18370475 -246.76656907 6.75377769 C-246.85676455 -6.59459633 -246.85676455 -6.59459633 -242.25 -11.375 C-237.90085086 -14.23183192 -234.47874872 -14.75289459 -229.33007812 -14.76318359 C-228.33372597 -14.77106903 -228.33372597 -14.77106903 -227.31724548 -14.77911377 C-225.13833565 -14.7922349 -222.96016627 -14.78360447 -220.78125 -14.7734375 C-219.25720073 -14.77546052 -217.73315241 -14.77837386 -216.20910645 -14.78213501 C-213.02163437 -14.78654766 -209.83441523 -14.78016172 -206.64697266 -14.76611328 C-202.57156487 -14.74902178 -198.49674989 -14.75886869 -194.42136383 -14.77683067 C-191.27626113 -14.78769733 -188.13129781 -14.78420902 -184.9861908 -14.7764473 C-183.48396229 -14.77445324 -181.98172092 -14.77687653 -180.47950745 -14.78388596 C-178.37597374 -14.79154836 -176.27338558 -14.77983105 -174.16992188 -14.76318359 C-172.37838684 -14.75960342 -172.37838684 -14.75960342 -170.55065918 -14.75595093 C-165.82838618 -14.21092214 -162.54616904 -12.44679043 -158.91308594 -9.44262695 C-156.27535349 -4.57722645 -156.64653152 0.25785294 -156.640625 5.70703125 C-156.62408875 6.87634689 -156.60755249 8.04566254 -156.59051514 9.25041199 C-156.54199024 12.97949453 -156.52065313 16.70816909 -156.5 20.4375 C-156.47184425 22.96811953 -156.44191739 25.49872002 -156.41015625 28.02929688 C-156.33622981 34.22779041 -156.28461351 40.426169 -156.25 46.625 C-155.94328873 45.96884705 -155.63657745 45.31269409 -155.3205719 44.63665771 C-153.90850904 41.62471259 -152.48753502 38.61705251 -151.06640625 35.609375 C-150.58417603 34.57731934 -150.1019458 33.54526367 -149.60510254 32.48193359 C-145.63081603 24.09640587 -141.10788882 16.79811545 -135.25 9.625 C-134.46109375 8.64402344 -133.6721875 7.66304687 -132.859375 6.65234375 C-119.27185986 -9.28011351 -99.28666344 -19.30309372 -78.42578125 -21.22998047 C-49.71714937 -23.14345975 -22.40660682 -19.54545549 0 0 Z " fill="#211E1E" transform="translate(2266.25,54.375)"/>
<path d="M0 0 C1.43279297 1.21429688 1.43279297 1.21429688 2.89453125 2.453125 C10.66858034 9.20017601 16.95720206 16.69087066 23 25 C23.41459473 25.55574707 23.82918945 26.11149414 24.25634766 26.68408203 C46.84658183 57.1894042 57.71357066 96.61153119 61 134 C61.10957031 135.06734375 61.21914062 136.1346875 61.33203125 137.234375 C66.2774307 194.46913131 55.91929469 257.90511283 18 303 C15.08651347 306.4219484 12.08531803 309.73258057 9 313 C8.20464844 313.87140625 7.40929688 314.7428125 6.58984375 315.640625 C-16.48834044 340.00673198 -50.50154794 354.68150574 -83.92529297 356.12646484 C-126.93474732 357.17093264 -163.48033408 345.84014391 -195 316 C-223.85410517 287.49405899 -238.93641883 246.31709669 -245 207 C-245.11037598 206.29278809 -245.22075195 205.58557617 -245.33447266 204.85693359 C-247.50724756 190.61242665 -248.23869452 176.39053644 -248.25 162 C-248.25067474 161.21886841 -248.25134949 160.43773682 -248.25204468 159.63293457 C-248.21099109 129.39140044 -244.26122183 99.54960676 -234 71 C-233.70754395 70.1857959 -233.41508789 69.3715918 -233.11376953 68.53271484 C-224.55281134 45.13397099 -212.28344042 24.91097835 -195 7 C-194.32324219 6.27167969 -193.64648438 5.54335937 -192.94921875 4.79296875 C-143.66475998 -46.94040722 -52.46585444 -45.13546033 0 0 Z M-125.6875 52.5 C-157.37287604 92.08772403 -149.46457379 164.48811993 -144.36352539 210.95825195 C-141.64587548 233.3641887 -136.25523368 260.65615145 -117.90625 275.71875 C-108.39461203 282.55105333 -98.5654798 284.11761965 -87 283 C-78.7769039 281.37738237 -72.19230029 278.67380625 -66 273 C-65.13375 272.21625 -64.2675 271.4325 -63.375 270.625 C-42.27313365 247.30188456 -39.84775657 212.55367237 -39.83203125 182.5078125 C-39.8288038 181.03066987 -39.82543872 179.55352753 -39.82194519 178.0763855 C-39.81599697 174.99199689 -39.81410057 171.90763611 -39.81469727 168.82324219 C-39.81477813 165.70892479 -39.80789287 162.59475572 -39.79418945 159.48046875 C-39.70131474 138.03133826 -39.73573706 116.64221092 -43.875 95.5 C-44.13216797 94.14213379 -44.13216797 94.14213379 -44.39453125 92.75683594 C-45.83797788 85.36312301 -47.61835968 78.15433457 -50 71 C-50.29519531 70.1028125 -50.59039063 69.205625 -50.89453125 68.28125 C-55.13976923 56.57523208 -62.16113411 48.15950573 -73.375 42.75 C-91.43331534 35.32877452 -111.89125813 38.17313344 -125.6875 52.5 Z " fill="#211E1E" transform="translate(1908,66)"/>
<path d="M0 0 C3.99200412 1.51460488 7.57468989 3.59026294 11.25 5.75 C12.30590332 6.34490234 13.36180664 6.93980469 14.44970703 7.55273438 C17.64271991 9.35218047 20.8214101 11.17523511 24 13 C54.07165723 29.99156969 85.2098607 45.49489062 117 59 C117.69492554 59.29632324 118.38985107 59.59264648 119.10583496 59.89794922 C200.79793636 94.69986235 286.14065332 120.28087779 479 150.25 C479.83074036 150.3272229 480.66148071 150.4044458 481.51739502 150.48400879 C513.04425642 153.37118487 544.6651847 154.38863116 576.31190109 154.31785583 C578.8684275 154.31238021 581.42494457 154.31003754 583.98147583 154.3079834 C611.51930662 154.2735972 638.91343459 153.56656538 666.3651123 151.22460938 C668.96203134 151.00323661 671.55952318 150.79007125 674.15722656 150.578125 C762.31996089 143.27335091 849.74791908 124.64144878 1011.08642578 68.50634766 C1011.78578247 68.21383118 1012.48513916 67.9213147 1013.20568848 67.61993408 C1015.10530287 66.82423031 1017.00315298 66.02431835 1018.90087891 65.22412109 C1025.14541666 62.75759263 1031.69182363 61.69336072 1038.25390625 63.68359375 C1042.99206109 65.85037803 1046.24580769 68.49313986 1049 73 C1050.39561554 77.89286389 1050.64673435 82.39209193 1048.625 87.125 C1042.57961533 97.2885494 1030.62071698 103.61381655 1021 110 C1020.24283691 110.50692383 1019.48567383 111.01384766 1018.70556641 111.53613281 C972.40108197 142.48301151 922.12758586 166.61461361 870 186 C868.94006836 186.39896484 867.88013672 186.79792969 866.78808594 187.20898438 C798.71606341 212.74370258 726.3070131 228.67498071 654.0625 236.3125 C653.35829926 236.3878598 652.65409851 236.4632196 651.92855835 236.54086304 C646.6246054 237.0990462 641.31519808 237.56316982 636 238 C634.98633362 238.08613556 633.97266724 238.17227112 632.92828369 238.26101685 C611.57685294 240.03173109 590.31298732 240.36290722 568.89829254 240.31785583 C566.21065633 240.31242043 563.52302891 240.31004978 560.83538818 240.3079834 C535.51609559 240.27764689 510.33931063 239.91349262 485.13964844 237.22460938 C482.97430972 236.99730317 480.80796155 236.78546073 478.640625 236.578125 C399.77121529 228.99373206 321.6048534 210.32100666 197 159 C195.96520508 158.52320801 194.93041016 158.04641602 193.86425781 157.55517578 C180.52064688 151.37645675 167.56298515 144.64832924 154.71630859 137.49853516 C152.03777887 136.02084188 149.34495609 134.57395417 146.64453125 133.13671875 C91.5045554 103.71370711 39.80399565 65.86266478 -6.625 24.125 C-7.56601562 23.28195312 -8.50703125 22.43890625 -9.4765625 21.5703125 C-13.152459 17.8261331 -15.76197379 14.69593673 -16.5 9.4375 C-15.91912703 5.44399832 -14.82477169 3.82477169 -12 1 C-8.19996742 -0.90001629 -4.13329484 -0.56298814 0 0 Z " fill="#FF9900" transform="translate(425,453)"/>
<path d="M0 0 C1.20294238 -0.00576172 1.20294238 -0.00576172 2.43018663 -0.01163983 C3.3054697 -0.01077335 4.18075278 -0.00990687 5.08255959 -0.00901413 C6.01687738 -0.01198525 6.95119518 -0.01495637 7.91382563 -0.01801753 C11.05208004 -0.0267058 14.1902963 -0.02821288 17.32856178 -0.02970505 C19.57554646 -0.03433306 21.82253035 -0.0393577 24.06951332 -0.04475021 C30.17898831 -0.05787627 36.28845231 -0.06431938 42.39793921 -0.06876087 C46.21321034 -0.07169077 50.02847847 -0.07579538 53.84374809 -0.08026505 C64.4090042 -0.0923727 74.97425769 -0.10275559 85.53952026 -0.10614014 C86.21545338 -0.1063597 86.8913865 -0.10657927 87.58780245 -0.10680549 C88.26534038 -0.10702377 88.94287831 -0.10724204 89.6409477 -0.10746694 C91.01386984 -0.1079104 92.38679199 -0.10835696 93.75971413 -0.10880661 C94.7812365 -0.10913875 94.7812365 -0.10913875 95.82339568 -0.10947761 C106.86071241 -0.11342648 117.89796315 -0.13088435 128.93525438 -0.15416613 C140.26943938 -0.1778811 151.60358011 -0.19008404 162.93779433 -0.19150805 C169.30063662 -0.19255733 175.66338579 -0.19849151 182.02620506 -0.21632767 C188.00978221 -0.23277459 193.99319591 -0.23498024 199.97678757 -0.22618866 C202.17380332 -0.22541652 204.37082775 -0.22978417 206.5678215 -0.23964691 C209.56536177 -0.25231521 212.56231861 -0.2465173 215.55985451 -0.23606491 C216.86608696 -0.24814952 216.86608696 -0.24814952 218.19870794 -0.26047826 C223.19900754 -0.2196555 226.60925276 0.37401138 230.94819069 3.13142776 C236.63860075 8.9756327 236.11516069 15.19174644 236.15131569 22.89314651 C236.15701576 23.83898102 236.16271584 24.78481552 236.16858864 25.75931168 C236.17801822 27.75890873 236.18456449 29.75852119 236.18842506 31.75813675 C236.19810175 34.79105225 236.22913287 37.82328131 236.26069069 40.85603714 C236.26722455 42.80590294 236.27247351 44.75577355 236.27631569 46.70564651 C236.28866249 47.60079468 236.30100929 48.49594284 236.31373024 49.41821671 C236.28058982 58.95937689 233.67146989 66.89097477 228.44819069 74.81892776 C228.012407 75.4982637 227.57662331 76.17759964 227.12763405 76.87752151 C223.22580071 82.88141111 219.00232381 88.63320302 214.72162819 94.36970901 C211.93176108 98.12304667 209.2709226 101.95597198 206.63569069 105.81892776 C202.50715794 111.8669833 198.33932372 117.88528243 194.13569069 123.88142776 C193.25240089 125.14152664 193.25240089 125.14152664 192.35126686 126.42708206 C191.14986486 128.14050355 189.94828519 129.85380048 188.74653053 131.56697464 C185.81094084 135.75315901 182.8797546 139.94242369 179.94819069 144.13142776 C178.78154588 145.79810973 177.61487919 147.46477639 176.44819069 149.13142776 C175.87069069 149.95642776 175.29319069 150.78142776 174.69819069 151.63142776 C141.44819069 199.13142777 141.44819069 199.13142777 139.69794655 201.63167191 C138.53196258 203.29743301 137.36610959 204.9632858 136.20038795 206.6292305 C133.27434616 210.81051604 130.34600585 214.99015578 127.41303444 219.16658401 C119.50689506 230.43114142 111.69222946 241.75481575 103.94819069 253.13142776 C104.75522438 253.1104805 105.56225807 253.08953323 106.39374733 253.0679512 C141.26351828 252.29148389 175.29375441 256.12730699 207.94819069 269.13142776 C208.63880592 269.40599808 209.32942116 269.68056839 210.04096413 269.96345901 C233.57443046 279.46798484 233.57443046 279.46798484 239.94819069 289.13142776 C241.62913398 293.37673863 242.20680985 296.94777266 242.23871803 301.50056839 C242.25147774 302.74205643 242.26423744 303.98354446 242.2773838 305.26265335 C242.28044109 306.60432656 242.28266905 307.94600187 242.28412819 309.28767776 C242.29056276 310.6772055 242.2972916 312.06673191 242.30430031 313.45625687 C242.31624048 316.36119605 242.31998431 319.26601657 242.31879616 322.17097855 C242.31859268 325.8832912 242.34593773 329.59484079 242.38034058 333.3069725 C242.4026307 336.17412656 242.40663314 339.0410972 242.40557671 341.90832901 C242.40792784 343.27661147 242.4167239 344.64489937 242.43224144 346.01309586 C242.56925177 359.33580952 242.56925177 359.33580952 237.94819069 364.13142776 C233.65028313 366.99669947 229.99403453 366.76719676 224.94819069 366.13142776 C221.6698153 365.01310345 218.7331898 363.41357265 215.69819069 361.75642776 C195.54047071 351.51158472 173.20224637 344.89827861 150.94819069 341.13142776 C150.02989479 340.97061722 149.11159889 340.80980667 148.16547585 340.64412308 C120.56422296 336.01288016 90.47741898 336.11388335 62.94819069 341.13142776 C62.02828346 341.29239944 61.10837624 341.45337112 60.16059303 341.61922073 C35.59766656 346.03774613 10.79448558 354.09613121 -11.07549095 366.25667191 C-14.4671576 367.75788767 -17.66654606 367.36597674 -21.05180931 366.13142776 C-24.79375881 363.05739613 -27.1102939 359.88683574 -28.05180931 355.13142776 C-28.14692503 353.35833306 -28.18983161 351.58210589 -28.19707298 349.80647659 C-28.20345284 348.74048737 -28.20983269 347.67449814 -28.21640587 346.57620621 C-28.21751869 345.42524963 -28.21863152 344.27429306 -28.21977806 343.08845901 C-28.22310646 341.89145874 -28.22643486 340.69445847 -28.22986412 339.46118546 C-28.23493092 336.9200364 -28.23727252 334.37888069 -28.23711205 331.83772659 C-28.23927549 328.00386949 -28.25736964 324.17031118 -28.27641869 320.33650589 C-28.33572332 297.10708798 -27.83291291 278.71614973 -13.73930931 259.31892776 C-12.30799789 257.30613575 -10.87701779 255.2931081 -9.44634056 253.27986526 C-8.71753685 252.26247269 -7.98873314 251.24508011 -7.23784447 250.19685745 C-3.75407583 245.31164425 -0.34357892 240.37610917 3.07319069 235.44392776 C8.58699495 227.51194082 14.12058066 219.59399586 19.664011 211.6826973 C26.78436801 201.5167895 33.86460762 191.32297528 40.94819069 181.13142776 C49.16797778 169.30515993 57.39419821 157.4837226 65.65961647 145.68928909 C70.78401201 138.3737977 75.88374853 131.04127967 80.98066139 123.70662308 C84.18456711 119.09783551 87.39274652 114.49222341 90.61615944 109.89705276 C91.20977272 109.05078323 91.803386 108.2045137 92.41498756 107.33259964 C93.48949738 105.8019415 94.56487222 104.2718898 95.64155006 102.74275589 C99.7026745 96.9581047 103.69504704 91.12722271 107.68378639 85.29256058 C108.28681839 84.41081161 108.88985039 83.52906265 109.51115608 82.62059402 C110.99035343 80.45766557 112.46935956 78.29460662 113.94819069 76.13142776 C113.33104163 76.13695852 112.71389257 76.14248928 112.07804203 76.14818764 C97.04596394 76.28082253 82.01406594 76.38004404 66.98155308 76.4423008 C59.71183605 76.47320982 52.44251015 76.51533269 45.1730442 76.58406448 C38.83529266 76.64395837 32.49782443 76.68259842 26.15979773 76.69595873 C22.80517752 76.70376603 19.45136764 76.72205001 16.09700775 76.76580811 C12.34761337 76.80937126 8.59989708 76.81536138 4.8502903 76.81258011 C3.74401787 76.83415176 2.63774544 76.85572342 1.4979496 76.87794876 C-4.72391863 76.82801579 -8.31448239 76.11386342 -12.84133625 71.71294975 C-15.26459979 68.546878 -15.18648359 65.48152683 -15.21294212 61.65364456 C-15.22254967 60.53205444 -15.23215721 59.41046432 -15.24205589 58.25488663 C-15.24630577 57.04238739 -15.25055565 55.82988815 -15.25493431 54.58064651 C-15.26063438 53.33394684 -15.26633446 52.08724716 -15.27220726 50.80276871 C-15.28166097 48.16236598 -15.28855584 45.52207701 -15.29204369 42.88167191 C-15.29643368 40.17840996 -15.31034498 37.47546624 -15.33305931 34.77229691 C-15.3635201 30.87498144 -15.37409188 26.97806776 -15.37993431 23.08064651 C-15.39228111 21.87421997 -15.40462791 20.66779343 -15.41734886 19.4248085 C-15.38951771 8.93587471 -15.38951771 8.93587471 -12.05180931 4.13142776 C-8.41181817 0.72627476 -4.87525924 0.00879607 0 0 Z " fill="#211E1E" transform="translate(1386.051809310913,38.86857223510742)"/>
<path d="M0 0 C1.49506828 -0.00855011 1.49506828 -0.00855011 3.02033997 -0.01727295 C5.12381958 -0.02666591 7.22731353 -0.03323404 9.33081055 -0.03710938 C12.46626386 -0.04671187 15.60103092 -0.07774776 18.73632812 -0.109375 C75.00708872 -0.40557041 75.00708872 -0.40557041 91.83203125 15.578125 C96.15342014 23.14055555 95.73225914 31.14863656 95.70703125 39.640625 C95.70648743 40.32641632 95.7059436 41.01220764 95.7053833 41.71878052 C95.6577527 54.85244313 94.16700128 67.37732956 91.33203125 80.203125 C91.01854736 81.66492188 91.01854736 81.66492188 90.69873047 83.15625 C81.59122795 124.85292069 63.47003066 164.03288891 35.33203125 196.203125 C34.46944071 197.25103202 33.60875261 198.30050802 32.75 199.3515625 C27.29366227 205.78633882 19.92897339 212.40465393 12.33203125 216.203125 C8.85854151 216.46042054 6.16547416 216.52367997 2.89453125 215.265625 C0.87178562 212.59560077 0.82716007 210.43881204 0.89233398 207.1496582 C1.78336503 201.1786123 4.34321769 195.63742153 6.62957764 190.08377075 C8.27218544 186.08588125 9.85698534 182.06502969 11.44921875 178.046875 C11.77608673 177.22538467 12.10295471 176.40389435 12.43972778 175.55751038 C30.79512495 129.5992302 30.79512495 129.5992302 39.33203125 81.203125 C39.38488281 80.33300781 39.43773437 79.46289062 39.4921875 78.56640625 C39.74137848 70.79814844 38.95581656 63.65152855 34.14453125 57.328125 C19.01118191 45.89403883 -1.85807869 46.96975878 -19.98046875 46.953125 C-20.84779633 46.95178558 -21.7151239 46.95044617 -22.60873413 46.94906616 C-47.80048975 46.95739402 -72.87872931 49.11420479 -97.8605957 52.28833008 C-117.04713578 54.64185795 -117.04713578 54.64185795 -122.00415039 51.9206543 C-123.66796875 50.203125 -123.66796875 50.203125 -124.29296875 46.453125 C-124.01537346 42.33421116 -122.79365889 39.98998955 -119.9375 37.046875 C-114.63156288 32.73637187 -108.65038237 29.46794387 -102.66796875 26.203125 C-102.02504883 25.85072754 -101.38212891 25.49833008 -100.71972656 25.13525391 C-70.29938788 8.68659749 -34.51454057 0.15837437 0 0 Z " fill="#FF9900" transform="translate(1481.66796875,429.796875)"/>
</svg>
