<?xml version="1.0" encoding="UTF-8"?>
<svg version="1.1" xmlns="http://www.w3.org/2000/svg" width="1600" height="600">
<path d="M0 0 C0.72445313 0.62261719 1.44890625 1.24523437 2.1953125 1.88671875 C2.87851562 2.43714844 3.56171875 2.98757812 4.265625 3.5546875 C10.05676079 8.33521332 14.57391767 13.9970464 19.1953125 19.88671875 C19.94296875 20.78132813 20.690625 21.6759375 21.4609375 22.59765625 C23.1953125 24.88671875 23.1953125 24.88671875 23.1953125 26.88671875 C21.67206359 27.90628816 20.09788549 28.84986519 18.5078125 29.76171875 C-7.83873283 46.08438565 -25.74538375 74.04916117 -32.89453125 103.7421875 C-34.84728336 112.10218299 -35.04730806 120.20657495 -35.0546875 128.76171875 C-35.05536224 129.45990723 -35.05603699 130.1580957 -35.05673218 130.87744141 C-35.04088443 141.17877515 -34.63350243 150.89387251 -31.8046875 160.88671875 C-31.48757813 162.07910156 -31.17046875 163.27148438 -30.84375 164.5 C-26.10294422 180.42036551 -17.83488176 195.46785943 -6.8046875 207.88671875 C-6.33224609 208.41958496 -5.85980469 208.95245117 -5.37304688 209.50146484 C6.59933307 222.733063 20.96541111 232.58197708 37.1953125 239.88671875 C35.76566969 247.5791718 33.1811792 254.48115259 30.1953125 261.69921875 C29.70546875 262.88829834 29.215625 264.07737793 28.7109375 265.30249023 C13.97732329 300.60098318 -7.24703646 334.25124096 -33.8046875 361.88671875 C-34.68640625 362.86318359 -34.68640625 362.86318359 -35.5859375 363.859375 C-43.50572295 372.38090886 -53.98609132 378.79969353 -64.8046875 382.88671875 C-65.58199219 383.20511719 -66.35929687 383.52351563 -67.16015625 383.8515625 C-87.15601745 390.74997566 -108.11282429 384.29067776 -126.73733521 376.70336914 C-161.18630486 362.6710314 -190.86507989 363.07971511 -225.30712891 376.89013672 C-246.19184198 385.23089905 -266.78218173 391.51081829 -288.7578125 382.703125 C-308.60513039 373.53283283 -324.06851274 356.22415097 -336.8046875 338.88671875 C-337.32272949 338.18643555 -337.84077148 337.48615234 -338.37451172 336.76464844 C-349.9779761 321.03849279 -360.63672708 305.16075873 -369.8046875 287.88671875 C-370.31829834 286.92741455 -370.31829834 286.92741455 -370.84228516 285.94873047 C-400.74306346 229.70077209 -419.80563206 156.57655013 -405.8046875 92.88671875 C-405.60601074 91.96133301 -405.40733398 91.03594727 -405.20263672 90.08251953 C-402.1667826 76.38138016 -397.82740678 63.55529717 -391.8046875 50.88671875 C-391.33724121 49.89019287 -391.33724121 49.89019287 -390.86035156 48.87353516 C-382.56324406 31.46716941 -369.91846397 14.89391147 -354.8046875 2.88671875 C-354.29728027 2.48340332 -353.78987305 2.08008789 -353.26708984 1.66455078 C-325.83030346 -19.89573757 -292.22586214 -30.98839521 -257.21875 -26.80419922 C-251.96827586 -25.96175634 -246.8923674 -24.64490335 -241.8046875 -23.11328125 C-241.11487793 -22.90960938 -240.42506836 -22.7059375 -239.71435547 -22.49609375 C-228.51287053 -19.12237205 -217.63166602 -14.81524214 -206.75 -10.54052734 C-182.9156467 -1.21072796 -166.99504014 -6.94339382 -144.02563477 -15.93017578 C-142.92147217 -16.36185059 -141.81730957 -16.79352539 -140.6796875 -17.23828125 C-139.58003662 -17.66866699 -138.48038574 -18.09905273 -137.34741211 -18.54248047 C-127.98419528 -22.15566914 -118.613351 -25.0044914 -108.8046875 -27.11328125 C-107.69867188 -27.35691406 -106.59265625 -27.60054687 -105.453125 -27.8515625 C-69.25899575 -34.58641946 -28.08619005 -23.59054577 0 0 Z " fill="#000000" transform="translate(408.8046875,183.11328125)"/>
<path d="M0 0 C20.86026676 18.01568493 32.85274862 45.32714691 35.75390625 72.484375 C36.94087146 90.7279868 36.83111817 109.07878884 33 127 C32.86078125 127.6698291 32.7215625 128.3396582 32.578125 129.02978516 C28.72173305 146.93254916 20.52274876 162.86933119 9 177 C8.57589844 177.57105469 8.15179687 178.14210938 7.71484375 178.73046875 C-6.00162203 196.38989411 -29.73348502 206.57913789 -51.4375 209.3125 C-74.40328262 211.80664512 -97.48578728 207.45811154 -116.125 193.25 C-121.53528691 188.76595421 -127.81783745 183.36432509 -131 177 C-131.33 215.61 -131.66 254.22 -132 294 C-145.2 294 -158.4 294 -172 294 C-172.01030746 290.61553116 -172.02061493 287.23106232 -172.03123474 283.74403381 C-172.12661285 252.56362333 -172.22647962 221.38323006 -172.33111694 190.20284927 C-172.34488322 186.09950705 -172.35861081 181.9961647 -172.37231445 177.89282227 C-172.37640691 176.66769212 -172.37640691 176.66769212 -172.38058204 175.41781186 C-172.42441686 162.26779828 -172.46513178 149.11777684 -172.50465261 135.96774966 C-172.54540621 122.43115994 -172.58960779 108.8945845 -172.63687855 95.35801595 C-172.66327035 87.77307132 -172.68815286 80.18812844 -172.70907402 72.60316658 C-172.79035764 43.38769348 -172.88051779 14.19816762 -174 -15 C-161.79 -15 -149.58 -15 -137 -15 C-136.40615327 -6.09229898 -135.85252886 2.55474822 -135.9375 11.4375 C-135.94201172 12.37142578 -135.94652344 13.30535156 -135.95117188 14.26757812 C-135.96268068 16.51179497 -135.97892366 18.75585635 -136 21 C-133.52696735 18.61097695 -131.38628114 16.26598172 -129.4375 13.4375 C-116.22503192 -4.28895343 -97.25150523 -15.7028771 -75.47265625 -19.52734375 C-47.70273438 -22.95388293 -21.88578862 -17.98535105 0 0 Z M-112 31 C-112.69609375 31.66386719 -113.3921875 32.32773437 -114.109375 33.01171875 C-118.39315268 37.37021348 -121.43542977 42.12044357 -124.25 47.5 C-124.56727051 48.08531494 -124.88454102 48.67062988 -125.21142578 49.27368164 C-132.16984066 63.37151063 -132.62083593 78.57386876 -132.46655273 93.96630859 C-132.43747415 97.12781052 -132.44601705 100.28763856 -132.45898438 103.44921875 C-132.43839521 125.01304651 -129.59620862 143.72198991 -114 160 C-105.63492188 168.01470836 -93.74512373 175.5159591 -82 177 C-80.97648438 177.13148438 -79.95296875 177.26296875 -78.8984375 177.3984375 C-61.70645616 179.11382366 -45.86780129 175.49301938 -32 165 C-31.01 164.29875 -30.02 163.5975 -29 162.875 C-11.98734181 148.03618147 -5.68570306 123.61198339 -4.16015625 101.94921875 C-2.80207989 76.9407394 -7.78677263 50.83449381 -24.625 31.46484375 C-36.7792716 18.85078885 -51.49972379 12.31712911 -69.0625 11.625 C-85.94730691 12.32271929 -100.27856599 18.97118573 -112 31 Z " fill="#000000" transform="translate(999,273)"/>
<path d="M0 0 C21.46472868 18.24667817 31.84049206 44.77722672 35.58984375 72.0859375 C35.72132813 73.0346875 35.8528125 73.9834375 35.98828125 74.9609375 C39.85224622 109.21446477 33.06592196 147.00587001 11.41625977 174.48413086 C-4.74759807 194.41479639 -27.2975223 206.8422654 -52.83105469 209.62109375 C-74.63443067 211.68837681 -97.48579243 207.66079921 -115.16015625 193.953125 C-120.78993648 189.0270673 -125.38131471 183.74338423 -130.41015625 178.0859375 C-130.74015625 216.3659375 -131.07015625 254.6459375 -131.41015625 294.0859375 C-144.61015625 294.0859375 -157.81015625 294.0859375 -171.41015625 294.0859375 C-171.42046371 290.98818939 -171.43077118 287.89044128 -171.44139099 284.69882202 C-171.53690183 256.11657243 -171.63678404 227.53434144 -171.74127319 198.95212337 C-171.7550384 195.18569304 -171.76876615 191.41926258 -171.7824707 187.65283203 C-171.78519901 186.90318368 -171.78792731 186.15353532 -171.79073829 185.38117035 C-171.8344951 173.33384451 -171.87523576 161.28651034 -171.91480886 149.23917012 C-171.95565719 136.8246579 -171.99986927 124.41016075 -172.0470348 111.99567091 C-172.07335025 105.04493415 -172.09822693 98.09419909 -172.11923027 91.14344406 C-172.22144442 51.68655993 -172.22144442 51.68655993 -173.13236374 12.2421087 C-173.41331263 3.16353783 -173.41015625 -5.80707856 -173.41015625 -14.9140625 C-161.53015625 -14.9140625 -149.65015625 -14.9140625 -137.41015625 -14.9140625 C-136.45015345 -11.0740513 -136.11733479 -7.68416682 -135.875 -3.7421875 C-135.83202286 -3.0597699 -135.78904572 -2.37735229 -135.74476624 -1.67425537 C-135.6089128 0.4956091 -135.47821381 2.66574859 -135.34765625 4.8359375 C-135.2561998 6.31121906 -135.16440669 7.78647979 -135.07226562 9.26171875 C-134.84766199 12.86955857 -134.62767859 16.47766303 -134.41015625 20.0859375 C-133.74371094 19.19132812 -133.07726563 18.29671875 -132.390625 17.375 C-117.58212379 -2.19405552 -99.52151734 -14.97630154 -74.953125 -19.40625 C-46.98232803 -23.04650548 -22.15565203 -17.5952504 0 0 Z M-116.4375 35.52734375 C-129.880763 53.85371759 -132.0737405 72.16606219 -131.87670898 94.22290039 C-131.84762442 97.77732769 -131.85616533 101.33026878 -131.86914062 104.88476562 C-131.85041122 126.49292256 -129.07448979 144.60465933 -113.234375 160.4609375 C-100.94654796 171.88198836 -86.2297299 177.76512735 -69.5078125 178.18359375 C-61.00555851 177.82384926 -53.34402793 176.1286396 -45.41015625 173.0859375 C-44.5490625 172.75980469 -43.68796875 172.43367187 -42.80078125 172.09765625 C-26.69610078 165.04544745 -16.73501258 149.83391313 -10.41015625 134.0859375 C-5.64437251 121.03862793 -4.03056173 108.11791292 -4.09765625 94.2734375 C-4.1032959 93.04657227 -4.10893555 91.81970703 -4.11474609 90.55566406 C-4.41552835 68.03570957 -10.64854561 45.61172298 -26.78515625 29.1484375 C-38.69483489 17.84656314 -52.85809037 12.53151129 -69.16015625 11.7109375 C-87.8038377 12.21967359 -104.63170761 21.31034906 -116.4375 35.52734375 Z " fill="#000000" transform="translate(1247.41015625,272.9140625)"/>
<path d="M0 0 C16.17 0 32.34 0 49 0 C56.06016008 19.5951534 62.87058195 39.25306527 69.51130295 58.99292374 C70.7764176 62.75142064 72.04458334 66.50888745 73.31274414 70.26635742 C73.5660616 71.01692445 73.81937906 71.76749147 74.08037281 72.54080296 C74.58906249 74.04797387 75.09776787 75.55513949 75.60648918 77.06229973 C76.35778948 79.28841528 77.10879982 81.51462848 77.85975647 83.74085999 C81.69429632 95.10653922 85.55378938 106.46352164 89.4375 117.8125 C89.98014562 119.39868082 90.52278886 120.98486246 91.06542969 122.57104492 C91.87250013 124.93007213 92.67959343 127.28909146 93.48684692 129.64805603 C97.00353171 139.92784482 100.50048224 150.21435778 104 160.5 C109.58228499 176.90527985 115.17451671 193.30712465 120.77685547 209.70556641 C123.78275519 218.50446819 126.78626551 227.30417535 129.78515625 236.10546875 C130.1024469 237.03657974 130.41973755 237.96769073 130.74664307 238.92701721 C132.3324297 243.5808064 133.91775264 248.23475287 135.50244141 252.88891602 C138.52388624 261.75946259 141.55610771 270.62607297 144.61328125 279.484375 C145.18084946 281.13101433 145.74839559 282.77766128 146.31591797 284.42431641 C147.37273872 287.49028473 148.4335268 290.55484095 149.49658203 293.61865234 C149.96531512 294.97748876 150.43391095 296.33637254 150.90234375 297.6953125 C151.30960693 298.87109863 151.71687012 300.04688477 152.13647461 301.25830078 C153 304 153 304 153 306 C138.81 306 124.62 306 110 306 C102.16699168 283.6417044 94.36540798 261.274073 86.70895386 238.85467529 C85.94452218 236.61784731 85.17850971 234.38155895 84.41091919 232.14581299 C83.33318935 229.00499364 82.26145961 225.8621916 81.19140625 222.71875 C80.86712646 221.77691864 80.54284668 220.83508728 80.20874023 219.86471558 C79.77005615 218.56946457 79.77005615 218.56946457 79.32250977 217.24804688 C79.06574966 216.49616089 78.80898956 215.7442749 78.54444885 214.96960449 C78 213 78 213 78 210 C24.54 210.495 24.54 210.495 -30 211 C-41.93993385 246.74423797 -41.93993385 246.74423797 -53.61621094 282.57226562 C-54.46527284 285.2131605 -55.31833885 287.85273594 -56.171875 290.4921875 C-56.41556824 291.25546356 -56.65926147 292.01873962 -56.91033936 292.80514526 C-57.14198792 293.52026276 -57.37363647 294.23538025 -57.61230469 294.97216797 C-57.90751007 295.89109329 -57.90751007 295.89109329 -58.2086792 296.82858276 C-59.34135104 299.93668147 -60.69689358 302.95941836 -62 306 C-75.53 306 -89.06 306 -103 306 C-101.71659324 300.22466957 -100.41739283 294.82948659 -98.51660156 289.28515625 C-98.27515097 288.56853632 -98.03370037 287.85191639 -97.78493309 287.1135807 C-96.99126666 284.76169365 -96.19100929 282.41210844 -95.390625 280.0625 C-94.82613284 278.3942885 -94.26204427 276.72594039 -93.69833374 275.0574646 C-92.19779751 270.62004839 -90.69149356 266.18461078 -89.18396759 261.74956512 C-87.61852656 257.14096616 -86.05840424 252.53056704 -84.49755859 247.92041016 C-78.05447002 228.89716302 -71.5944404 209.87954901 -65.08496094 190.87890625 C-59.85138874 175.59901426 -54.67724944 160.29903998 -49.5 145 C-43.42638798 127.05273862 -37.34332844 109.1089335 -31.20684814 91.18304443 C-27.32112377 79.83014459 -23.46227463 68.46827998 -19.6171875 57.1015625 C-19.13983388 55.69069338 -18.66247792 54.27982506 -18.18511963 52.86895752 C-16.05040544 46.55903666 -13.9165327 40.24883472 -11.78561211 33.93763161 C-11.11469272 31.95113894 -10.44321456 29.96483613 -9.77151489 27.97860718 C-8.94585221 25.53691379 -8.12113673 23.0948998 -7.2975769 20.65249634 C-6.92206696 19.5427243 -6.54655701 18.43295227 -6.15966797 17.28955078 C-5.83771454 16.33621857 -5.51576111 15.38288635 -5.18405151 14.40066528 C-3.50648012 9.582582 -1.74349836 4.7946205 0 0 Z M23 35 C22.75056641 35.98540771 22.50113281 36.97081543 22.24414062 37.98608398 C13.51818606 72.2544189 2.60103585 105.66402794 -8.8046875 139.12109375 C-9.39620102 140.85687935 -9.39620102 140.85687935 -9.99966431 142.62773132 C-11.91305647 148.2380996 -13.83363813 153.84582306 -15.76806641 159.44897461 C-16.11918488 160.47124649 -16.47030334 161.49351837 -16.83206177 162.54676819 C-17.48981729 164.46175124 -18.15114329 166.37551293 -18.81661987 168.28782654 C-19.10594391 169.13240921 -19.39526794 169.97699188 -19.69335938 170.84716797 C-19.94710327 171.58095673 -20.20084717 172.31474548 -20.46228027 173.07077026 C-21.1342443 175.14784717 -21.1342443 175.14784717 -21 178 C8.7 178 38.4 178 69 178 C66.98465453 171.28218175 64.9204411 164.61300826 62.69921875 157.96484375 C62.38642471 157.02550491 62.07363068 156.08616608 61.75135803 155.11836243 C61.08046034 153.10498863 60.40880436 151.09186738 59.7364502 149.07897949 C58.66674733 145.87534827 57.60036684 142.67062311 56.53417969 139.46582031 C53.17223596 129.37717509 49.7805481 119.30191135 46.25390625 109.26953125 C37.67271275 84.794549 30.51499328 60.10316263 24 35 C23.67 35 23.34 35 23 35 Z " fill="#000000" transform="translate(644,172)"/>
<path d="M0 0 C0.80695313 0.65226562 1.61390625 1.30453125 2.4453125 1.9765625 C3.47011719 2.73839844 3.47011719 2.73839844 4.515625 3.515625 C23.03494838 18.13614345 32.56165692 44.20098911 35.94921875 66.84765625 C37.42062665 79.38177595 37.92341632 93.58604339 35.4453125 105.9765625 C-15.3746875 105.9765625 -66.1946875 105.9765625 -118.5546875 105.9765625 C-114.98078867 130.99385432 -110.93685978 150.16929724 -91.4296875 166.6640625 C-69.08291656 183.13215328 -40.83673364 182.48995284 -14.5546875 178.9765625 C-3.56051545 177.12904478 6.95175502 173.66238775 17.4453125 169.9765625 C18.44522341 173.92681846 19.44205946 177.87783613 20.43603516 181.82958984 C20.77470537 183.17420476 21.11421948 184.51860741 21.45458984 185.86279297 C21.94329359 187.7933865 22.42872562 189.72480731 22.9140625 191.65625 C23.20732422 192.81882324 23.50058594 193.98139648 23.80273438 195.17919922 C24.4453125 197.9765625 24.4453125 197.9765625 24.4453125 199.9765625 C12.07610255 205.13335347 -0.39811079 208.46612916 -13.5546875 210.9765625 C-14.25045898 211.11078613 -14.94623047 211.24500977 -15.66308594 211.38330078 C-49.233408 217.46909858 -87.56412335 213.97921152 -116.1171875 194.3515625 C-127.51250949 185.62465906 -136.64902806 175.55693215 -143.5546875 162.9765625 C-144.03760254 162.09943604 -144.03760254 162.09943604 -144.53027344 161.20458984 C-161.15317886 130.21316485 -161.19470094 91.1525248 -151.5546875 57.9765625 C-146.84721495 42.57698068 -139.43775963 27.9383108 -128.5546875 15.9765625 C-127.67167969 15.00074219 -126.78867188 14.02492188 -125.87890625 13.01953125 C-95.08777406 -19.90157634 -36.52981481 -28.43574505 0 0 Z M-100.5546875 32.9765625 C-110.25065705 44.97018963 -117.5546875 61.48625486 -117.5546875 76.9765625 C-79.6046875 76.9765625 -41.6546875 76.9765625 -2.5546875 76.9765625 C-2.5546875 57.10745445 -6.91718831 40.85209352 -20.390625 25.9453125 C-31.46097924 15.29535146 -46.020224 12.47766966 -60.81640625 12.73046875 C-76.66113717 13.77353881 -90.16370509 21.14880228 -100.5546875 32.9765625 Z " fill="#000000" transform="translate(1563.5546875,269.0234375)"/>
<path d="M0 0 C13.53 0 27.06 0 41 0 C41 106.59 41 213.18 41 323 C27.47 323 13.94 323 0 323 C0 216.41 0 109.82 0 0 Z " fill="#000000" transform="translate(1324,155)"/>
<path d="M0 0 C6.44926096 21.11612861 -4.06548275 49.32186418 -13.82714844 67.88867188 C-25.56171923 89.01285343 -42.58903837 105.87493147 -64 117 C-65.03769531 117.556875 -66.07539063 118.11375 -67.14453125 118.6875 C-80.73728353 125.52662064 -94.91903496 127.80075921 -110 127 C-116.34080253 106.29012078 -105.83792082 80.53337585 -96.36572266 62.64233398 C-92.23742291 55.11097633 -87.59182611 48.51768585 -82 42 C-80.94425781 40.70255859 -80.94425781 40.70255859 -79.8671875 39.37890625 C-61.57630082 17.74706426 -28.84381547 -0.90608844 0 0 Z " fill="#000000" transform="translate(332,22)"/>
</svg>
