<?xml version="1.0" encoding="UTF-8"?>
<svg version="1.1" xmlns="http://www.w3.org/2000/svg" width="1280" height="282">
<path d="M0 0 C1.00804688 0.69738281 2.01609375 1.39476562 3.0546875 2.11328125 C12.01957661 8.50790437 20.49481192 15.4169134 28.62109375 22.84375 C30.77510509 24.79615436 32.97027726 26.68277359 35.1875 28.5625 C39.1952345 32.06827173 42.57657527 35.93186251 46 40 C47.58653207 41.85349407 49.17662151 43.70390661 50.76660156 45.55444336 C53.18155704 48.36636331 55.59070886 51.18322613 58 54 C61.75836111 50.3505769 65.14526826 46.51903506 68.5 42.5 C77.75187918 31.58830564 87.69866802 21.79345213 99 13 C99.9590625 12.22398438 100.918125 11.44796875 101.90625 10.6484375 C111.1147025 3.32353211 120.91234413 -2.95614038 131 -9 C131.63099609 -9.37898438 132.26199219 -9.75796875 132.91210938 -10.1484375 C148.17427085 -19.16005782 165.25392707 -25.42712396 182.125 -30.6875 C183.32225708 -31.07156006 183.32225708 -31.07156006 184.54370117 -31.46337891 C190.68683429 -33.28029699 195.43897205 -33.37901505 201.25 -30.25 C204.60204501 -27.50741772 206.70009542 -25.32588261 207.27304339 -20.88243687 C207.38828237 -18.18265115 207.39960081 -15.49850655 207.38095093 -12.79627991 C207.3856309 -11.75901888 207.39031087 -10.72175785 207.39513266 -9.65306467 C207.40711252 -6.17230749 207.39761346 -2.69194185 207.38818359 0.78881836 C207.39224798 3.28225434 207.3975891 5.77568851 207.40411377 8.26911926 C207.41638671 14.34184733 207.41457162 20.41442136 207.40587585 26.48714345 C207.39910054 31.42309986 207.39818192 36.35902509 207.4014473 41.29498482 C207.401907 41.99751679 207.40236669 42.70004875 207.40284032 43.42386957 C207.4037995 44.85106552 207.40477214 46.27826146 207.4057581 47.7054574 C207.41431324 61.08921047 207.40447625 74.47290191 207.388357 87.85664488 C207.37495662 99.33829869 207.37727934 110.8198615 207.39111328 122.30151367 C207.40717195 135.63584106 207.41348618 148.97011439 207.40427649 162.30445009 C207.40332085 163.72669986 207.40237774 165.14894963 207.4014473 166.57119942 C207.40098447 167.27096421 207.40052164 167.97072901 207.40004479 168.6916988 C207.39745554 173.62070626 207.40182455 178.54967942 207.40888596 183.47868156 C207.41818401 190.11479 207.41155302 196.75075317 207.39420319 203.38685417 C207.3902325 205.82413446 207.3913823 208.2614292 207.39799118 210.69870377 C207.40617354 214.0224308 207.39592443 217.34560459 207.38095093 220.66929626 C207.38764309 221.63670948 207.39433526 222.6041227 207.40123022 223.60085148 C207.35549664 228.82497621 206.93347239 232.48798669 204 237 C199.43016561 241.44957559 195.35682414 242.12200901 189.15638924 242.13142776 C188.20326729 242.13526891 187.25014534 242.13911005 186.26814091 242.1430676 C185.22914202 242.14220112 184.19014313 242.14133463 183.11965942 242.14044189 C181.45457032 242.14489858 181.45457032 242.14489858 179.75584304 242.1494453 C176.0287901 242.15813079 172.30176929 242.15964041 168.57470703 242.16113281 C165.90555673 242.16576101 163.23640934 242.17076511 160.56726074 242.17617798 C153.31112155 242.18974661 146.0549879 242.19578342 138.79883814 242.20018864 C134.2674501 242.20295294 129.73606418 242.20719057 125.20467758 242.21169281 C112.65606635 242.2238824 100.10745682 242.23418308 87.5588398 242.2375679 C86.75608608 242.23778747 85.95333235 242.23800703 85.12625276 242.23823325 C84.32159563 242.23845153 83.51693849 242.23866981 82.6878978 242.2388947 C81.05739411 242.23933817 79.42689041 242.23978473 77.79638672 242.24023438 C76.58321141 242.24056652 76.58321141 242.24056652 75.34552751 242.24090537 C62.23643302 242.24485455 49.12739408 242.26231358 36.01832105 242.2855939 C22.55628901 242.30930796 9.09428486 242.32176974 -4.36776841 242.32293582 C-11.92501803 242.32385243 -19.48219523 242.3296013 -27.0394249 242.34775543 C-33.47338975 242.363157 -39.90725977 242.36827649 -46.34123956 242.36001733 C-49.62315545 242.3561113 -52.90484048 242.35867108 -56.18674088 242.37107468 C-59.74655634 242.38374065 -63.30588038 242.37794603 -66.86569214 242.36749268 C-67.90022959 242.37554908 -68.93476703 242.38360548 -70.0006541 242.39190602 C-76.42154055 242.34775389 -81.6016488 241.78878148 -86.7421875 237.5703125 C-91.58626126 231.38994253 -91.14733521 225.55366405 -91.14044189 218.03079224 C-91.14341302 217.01873809 -91.14638414 216.00668394 -91.1494453 214.96396148 C-91.15812545 211.56857664 -91.15963996 208.17322709 -91.16113281 204.77783203 C-91.16576139 202.3451327 -91.1707861 199.91243409 -91.17617798 197.47973633 C-91.18929831 190.86820384 -91.19578276 184.25667868 -91.20018864 177.64513636 C-91.2029536 173.51577152 -91.20719136 169.38640901 -91.21169281 165.25704575 C-91.22388181 153.82019002 -91.23418264 142.38333616 -91.2375679 130.94647408 C-91.23778747 130.21494302 -91.23800703 129.48341197 -91.23823325 128.72971331 C-91.23845153 127.99645493 -91.23866981 127.26319654 -91.2388947 126.50771821 C-91.23933816 125.02190979 -91.23978473 123.53610138 -91.24023438 122.05029297 C-91.2404558 121.31328419 -91.24067723 120.5762754 -91.24090537 119.81693302 C-91.24485436 107.87181079 -91.26231307 95.92674952 -91.2855939 83.98165084 C-91.30931226 71.71291169 -91.32176993 59.44420312 -91.32293582 47.17544067 C-91.32385218 40.28888429 -91.32959482 33.40240742 -91.34775543 26.51587296 C-91.3647737 20.03983251 -91.36640544 13.56390272 -91.35761642 7.08784485 C-91.35684458 4.7106422 -91.36120814 2.33343153 -91.37107468 -0.04375076 C-91.38375191 -3.28828957 -91.37794001 -6.53229007 -91.36749268 -9.77682495 C-91.37554908 -10.71797964 -91.38360548 -11.65913433 -91.39190602 -12.62880886 C-91.34552977 -18.78479271 -90.64083612 -23.85916558 -86.53515625 -28.7421875 C-66.4394354 -44.20043431 -17.28530323 -11.96151359 0 0 Z " fill="#239DE0" transform="translate(94,36)"/>
<path d="M0 0 C3.35204501 2.74258228 5.45009542 4.92411739 6.02304339 9.36756313 C6.13828237 12.06734885 6.14960081 14.75149345 6.13095093 17.45372009 C6.1356309 18.49098112 6.14031087 19.52824215 6.14513266 20.59693533 C6.15711252 24.07769251 6.14761346 27.55805815 6.13818359 31.03881836 C6.14224798 33.53225434 6.1475891 36.02568851 6.15411377 38.51911926 C6.16638671 44.59184733 6.16457162 50.66442136 6.15587585 56.73714345 C6.14910054 61.67309986 6.14818192 66.60902509 6.1514473 71.54498482 C6.151907 72.24751679 6.15236669 72.95004875 6.15284032 73.67386957 C6.1537995 75.10106552 6.15477214 76.52826146 6.1557581 77.9554574 C6.16431324 91.33921047 6.15447625 104.72290191 6.138357 118.10664488 C6.12495662 129.58829869 6.12727934 141.0698615 6.14111328 152.55151367 C6.15717195 165.88584106 6.16348618 179.22011439 6.15427649 192.55445009 C6.15332085 193.97669986 6.15237774 195.39894963 6.1514473 196.82119942 C6.15098447 197.52096421 6.15052164 198.22072901 6.15004479 198.9416988 C6.14745554 203.87070626 6.15182455 208.79967942 6.15888596 213.72868156 C6.16818401 220.36479 6.16155302 227.00075317 6.14420319 233.63685417 C6.1402325 236.07413446 6.1413823 238.5114292 6.14799118 240.94870377 C6.15617354 244.2724308 6.14592443 247.59560459 6.13095093 250.91929626 C6.13764309 251.88670948 6.14433526 252.8541227 6.15123022 253.85085148 C6.10549664 259.07497621 5.68347239 262.73798669 2.75 267.25 C-2.89664518 272.74804926 -8.64740768 272.39596855 -16.0793457 272.36352539 C-17.39717293 272.36374443 -17.39717293 272.36374443 -18.74162292 272.3639679 C-21.63636776 272.36327299 -24.5310477 272.35550036 -27.42578125 272.34765625 C-29.43645696 272.34579057 -31.44713312 272.34436737 -33.45780945 272.34336853 C-38.74318706 272.33955517 -44.02853708 272.32973495 -49.31390381 272.31866455 C-54.70991645 272.30842505 -60.10593356 272.30386547 -65.50195312 272.29882812 C-76.08464752 272.28811163 -86.66732146 272.27104937 -97.25 272.25 C-97.16120764 271.41460819 -97.16120764 271.41460819 -97.07062149 270.56233978 C-96.79896243 267.98659184 -96.53275946 265.41030635 -96.26660156 262.83398438 C-96.17343658 261.95836853 -96.08027161 261.08275269 -95.98428345 260.18060303 C-95.08066799 251.36233432 -94.93702692 242.60708836 -95 233.75 C-95.00343414 232.94817291 -95.00686829 232.14634583 -95.01040649 231.32022095 C-95.07095596 219.21077773 -95.28502178 207.22477942 -97.25 195.25 C-97.39002441 194.37327637 -97.53004883 193.49655273 -97.67431641 192.59326172 C-103.96843477 154.90044699 -119.34273759 117.22069853 -143.25 87.25 C-135.48758327 70.25764496 -116.53765264 54.51967254 -102.25 43.25 C-100.80367187 42.07824219 -100.80367187 42.07824219 -99.328125 40.8828125 C-90.12076539 33.56833646 -80.33158235 27.29022077 -70.25 21.25 C-69.61900391 20.87101562 -68.98800781 20.49203125 -68.33789062 20.1015625 C-53.07572915 11.08994218 -35.99607293 4.82287604 -19.125 -0.4375 C-18.32682861 -0.69354004 -17.52865723 -0.94958008 -16.70629883 -1.21337891 C-10.56316571 -3.03029699 -5.81102795 -3.12901505 0 0 Z " fill="#98D438" transform="translate(295.25,5.75)"/>
<path d="M0 0 C13.2 0 26.4 0 40 0 C47.05146655 12.42019677 54.05166766 24.86265596 60.9375 37.375 C66.19868564 46.93391655 71.48256287 56.47919902 76.8125 66 C77.68346313 67.55726807 77.68346313 67.55726807 78.57202148 69.14599609 C79.11157471 70.10844238 79.65112793 71.07088867 80.20703125 72.0625 C80.6760083 72.89910156 81.14498535 73.73570313 81.62817383 74.59765625 C83.04992735 77.08743284 84.51620475 79.54677728 86 82 C89.11510065 78.33777972 91.48482874 74.53640388 93.6875 70.28515625 C94.02654358 69.64170258 94.36558716 68.9982489 94.71490479 68.33529663 C95.43904217 66.95982343 96.16084498 65.58311901 96.88049316 64.20529175 C98.39768628 61.30130868 99.92711437 58.40383612 101.45611572 55.50605774 C102.22435451 54.05003279 102.99205566 52.59372403 103.75921631 51.13713074 C112.83940893 33.90404189 122.38141757 16.93706907 132 0 C145.2 0 158.4 0 172 0 C173.87965365 31.30627034 175.35811071 62.62943708 176.81634593 93.95747221 C177.09147844 99.86060298 177.3711566 105.76351244 177.6517421 111.66638619 C177.92655318 117.45232382 178.19807076 123.23841028 178.46714294 129.02461761 C178.62611529 132.44196483 178.78631532 135.85924192 178.94995499 139.27636909 C179.13096687 143.07412627 179.3065727 146.87209947 179.48095703 150.67016602 C179.53391937 151.75670975 179.58688171 152.84325348 179.64144897 153.96272278 C180.06248951 163.33626466 180 172.58301542 180 182 C166.14 182 152.28 182 138 182 C136.35 144.38 134.7 106.76 133 68 C125.41585027 81.47663633 125.41585027 81.47663633 118.1875 95.125 C114.02256727 103.17245111 109.77895683 111.17131802 105.4375 119.125 C104.93694092 120.04297363 104.43638184 120.96094727 103.9206543 121.90673828 C103.00534085 123.57798926 102.0785179 125.24301612 101.13745117 126.89990234 C99.88377738 129.10688717 99.88377738 129.10688717 98.828125 132.046875 C96.06704552 134.99674624 93.24883726 134.88503567 89.3203125 135.10571289 C76.5974941 135.1872959 76.5974941 135.1872959 72.26171875 131.96484375 C70.56874094 129.17574726 69.25287178 126.37737592 68.03222656 123.35449219 C65.87526511 118.43449781 63.03722094 113.84674543 60.375 109.1875 C59.16755845 107.02178714 57.96185717 104.85510321 56.7578125 102.6875 C52.42414744 94.93563671 47.9462113 87.27018501 43.44287109 79.6159668 C42.88937988 78.67406494 42.33588867 77.73216309 41.765625 76.76171875 C41.27868164 75.93631592 40.79173828 75.11091309 40.29003906 74.26049805 C39.11615893 72.20354193 38.04962174 70.12204695 37 68 C36.95028549 69.16888763 36.95028549 69.16888763 36.89956665 70.36138916 C36.47567639 80.32430069 36.05075923 90.28716816 35.625 100.25 C35.57412043 101.44061413 35.57412043 101.44061413 35.52221298 102.65528107 C34.3915074 129.10561772 33.21916267 155.55354829 32 182 C18.8 182 5.6 182 -8 182 C-8 171.85582333 -7.85878446 161.80888488 -7.37329102 151.68969727 C-7.30565536 150.22579275 -7.23832261 148.76187421 -7.17126465 147.29794312 C-6.99046465 143.37004512 -6.80540028 139.4423591 -6.61942792 135.51470304 C-6.42400493 131.37302563 -6.23238585 127.231172 -6.04026794 123.08934021 C-5.71725032 116.13716756 -5.3916235 109.1851212 -5.06420898 102.2331543 C-4.6876316 94.23702987 -4.31431952 86.24075858 -3.94296318 78.24439007 C-3.54488659 69.67273755 -3.14484114 61.10117784 -2.74399829 52.52965426 C-2.62980813 50.0857087 -2.51592811 47.64174885 -2.40210152 45.19778633 C-2.22194574 41.33244543 -2.04042341 37.4671708 -1.85791779 33.60194016 C-1.79179493 32.19768054 -1.7260768 30.79340178 -1.66083336 29.38910103 C-1.20488394 19.58425929 -0.61238607 9.79817706 0 0 Z " fill="#221E1F" transform="translate(400,52)"/>
<path d="M0 0 C4.35064996 1.5098146 6.24442426 4.79761942 8.625 8.5 C9.0573999 9.16290039 9.4897998 9.82580078 9.93530273 10.50878906 C15.03607495 18.44639879 19.61914317 26.64737975 24 35 C24.3801123 35.71542969 24.76022461 36.43085938 25.15185547 37.16796875 C36.65683233 59.08981619 44.10377668 83.60488944 48 108 C48.12842285 108.78262207 48.2568457 109.56524414 48.38916016 110.37158203 C50.23857 122.32937466 50.22319195 134.42764341 50.3125 146.5 C50.32221832 147.2662973 50.33193665 148.0325946 50.34194946 148.82211304 C50.47618709 161.31256516 48.8837018 172.441988 47 185 C16.64 185 -13.72 185 -45 185 C-49.06583552 149.76275879 -49.17547134 117.23031206 -40 83 C-39.77973145 82.16065918 -39.55946289 81.32131836 -39.33251953 80.45654297 C-32.05762863 53.15853185 -19.28769 27.76577012 -3.15405273 4.65966797 C-2.08328162 3.11976908 -1.04039036 1.56058555 0 0 Z " fill="#1563A8" transform="translate(151,93)"/>
<path d="M0 0 C13.29341605 12.59819777 18.53906604 30.12502829 20.75 47.8125 C20.75 53.7525 20.75 59.6925 20.75 65.8125 C-8.95 65.8125 -38.65 65.8125 -69.25 65.8125 C-65.31273013 76.63999215 -63.27530254 81.94501921 -53.25 86.8125 C-41.79611075 90.94106083 -25.44635543 90.63708109 -14.25 85.8125 C-11.10748051 84.32739059 -7.99406312 82.79133723 -4.92993164 81.15014648 C-2.13580204 79.66119313 -0.47191921 78.8125 2.75 78.8125 C4.51812715 81.11406212 6.08123001 83.36685243 7.625 85.8125 C8.06682617 86.49932861 8.50865234 87.18615723 8.96386719 87.89379883 C9.83689753 89.25304337 10.70613957 90.61472971 11.57128906 91.97900391 C12.54318529 93.49079774 13.55895248 94.97429345 14.5859375 96.44921875 C16 98.5 16 98.5 17.75 101.8125 C16.03640498 107.60013881 9.69146316 110.12429572 4.75 112.8125 C-17.44990327 122.93543877 -43.17669126 125.35189533 -66.5234375 117.74609375 C-83.40578296 111.17109288 -95.75348381 100.33145046 -103.25 83.8125 C-110.59458001 64.36846738 -110.89503907 42.30132412 -102.70703125 23.0703125 C-94.64695835 5.3522926 -81.98758934 -5.13945125 -64.25 -12.1875 C-61.24488384 -13.18612322 -58.38996885 -13.80606012 -55.25 -14.1875 C-54.3528125 -14.30738281 -53.455625 -14.42726563 -52.53125 -14.55078125 C-33.24364647 -16.65719058 -15.00896518 -12.67725566 0 0 Z M-65.25 26.8125 C-68.33858147 31.38464166 -69.25 34.19179534 -69.25 39.8125 C-52.09 39.8125 -34.93 39.8125 -17.25 39.8125 C-18.46631028 30.08201776 -21.10065147 26.57831123 -28.0546875 20.328125 C-40.20502928 11.93963281 -56.10078642 16.63096365 -65.25 26.8125 Z " fill="#221E1F" transform="translate(704.25,116.1875)"/>
<path d="M0 0 C1.58001098 1.50263288 3.14433236 3.02205399 4.6875 4.5625 C5.26371094 5.12710938 5.83992188 5.69171875 6.43359375 6.2734375 C21.27700151 22.0807029 22.6875 46.18404635 22.6875 66.5625 C-7.3425 66.5625 -37.3725 66.5625 -68.3125 66.5625 C-63.79920331 77.84574174 -61.22811685 82.65515376 -50.6796875 87.6171875 C-39.70149707 92.00121734 -24.2760803 90.87217748 -13.3984375 86.91796875 C-7.5805392 84.36251216 -1.91738513 81.5540129 3.6875 78.5625 C4.33976562 79.54089844 4.99203125 80.51929688 5.6640625 81.52734375 C6.08518311 82.15866211 6.50630371 82.78998047 6.94018555 83.44042969 C7.85706498 84.81648286 8.7725873 86.19344123 9.68676758 87.57128906 C11.66927415 90.55616281 13.66152057 93.52555037 15.72265625 96.45703125 C16.26792969 97.23433594 16.81320312 98.01164062 17.375 98.8125 C17.85324219 99.47765625 18.33148437 100.1428125 18.82421875 100.828125 C19.6875 102.5625 19.6875 102.5625 18.6875 105.5625 C0.19041163 120.20747428 -25.53252931 124.62848018 -48.5078125 122.34423828 C-57.2953921 121.13764253 -65.37813234 118.47365016 -73.3125 114.5625 C-74.16328125 114.14355469 -75.0140625 113.72460938 -75.890625 113.29296875 C-90.14027239 105.51839698 -99.87462393 92.2738726 -104.53125 76.87890625 C-109.28704972 56.69053645 -108.19889729 35.53552624 -98.0625 17.125 C-88.51035541 2.07625497 -75.45271532 -7.79029562 -58.3125 -12.6875 C-37.81995048 -17.11490267 -15.99709138 -14.03631187 0 0 Z M-63.3125 27.5625 C-66.30639624 31.89041123 -67.42170837 35.2177502 -68.3125 40.5625 C-50.8225 40.5625 -33.3325 40.5625 -15.3125 40.5625 C-17.4871269 30.77667897 -19.32121576 26.36009837 -27.3125 20.5625 C-39.18521833 13.38939934 -54.76749125 17.00690095 -63.3125 27.5625 Z " fill="#221E1F" transform="translate(1254.3125,115.4375)"/>
<path d="M0 0 C13.86 0 27.72 0 42 0 C42 48.51 42 97.02 42 147 C67.74 147 93.48 147 120 147 C120 158.55 120 170.1 120 182 C80.4 182 40.8 182 0 182 C0 121.94 0 61.88 0 0 Z " fill="#231E20" transform="translate(856,52)"/>
<path d="M0 0 C0.495 1.485 0.495 1.485 1 3 C-0.35522461 5.54370117 -0.35522461 5.54370117 -2.40234375 8.54296875 C-3.12744141 9.61611328 -3.85253906 10.68925781 -4.59960938 11.79492188 C-5.37868521 12.92593354 -6.15798502 14.05679096 -6.9375 15.1875 C-7.71383552 16.32943632 -8.48923832 17.47200734 -9.26367188 18.61523438 C-11.16667543 21.41655017 -13.07904985 24.21097371 -15 27 C-20.72021484 25.10644531 -20.72021484 25.10644531 -23.23828125 24.1484375 C-30.12103361 21.58198747 -36.36764816 20.60631174 -43.3125 23.5 C-47.98872351 26.19208884 -49.25106279 28.89310335 -51 34 C-51.33 38.29 -51.66 42.58 -52 47 C-42.1 47 -32.2 47 -22 47 C-22 57.23 -22 67.46 -22 78 C-31.9 78 -41.8 78 -52 78 C-52 110.01 -52 142.02 -52 175 C-65.2 175 -78.4 175 -92 175 C-92 142.99 -92 110.98 -92 78 C-98.6 78 -105.2 78 -112 78 C-112 67.77 -112 57.54 -112 47 C-105.4 47 -98.8 47 -92 47 C-92.04125 44.89625 -92.0825 42.7925 -92.125 40.625 C-92.09373769 25.08763384 -87.70168429 13.112917 -76.93359375 1.8359375 C-57.15247962 -17.06051142 -21.18654807 -16.24804665 0 0 Z " fill="#221E1F" transform="translate(1163,59)"/>
<path d="M0 0 C13.2 0 26.4 0 40 0 C40 11.22 40 22.44 40 34 C50.89 34 61.78 34 73 34 C73 44.23 73 54.46 73 65 C62.11 65 51.22 65 40 65 C40.07421776 72.36547268 40.15725137 79.72977999 40.26245117 87.09472656 C40.29557919 89.59694251 40.32364833 92.09923101 40.34643555 94.6015625 C40.38020452 98.21125019 40.43253274 101.82028024 40.48828125 105.4296875 C40.49467117 106.53738495 40.5010611 107.6450824 40.50764465 108.78634644 C40.65045774 116.43663768 41.03336069 124.52479395 46.1875 130.5625 C51.83306706 133.44801205 56.23708204 133.42355505 62.1875 131.75 C65.10704192 130.78874194 67.25366256 129.8400823 69.875 128.1875 C70.926875 127.5996875 70.926875 127.5996875 72 127 C75.90117326 128.24706379 77.35083564 130.62079076 79.453125 134.0078125 C80.071875 134.99394531 80.690625 135.98007813 81.328125 136.99609375 C82.27945313 138.54490234 82.27945313 138.54490234 83.25 140.125 C83.8996875 141.16527344 84.549375 142.20554688 85.21875 143.27734375 C86.82135984 145.84623305 88.41463062 148.42044815 90 151 C87.6579906 153.45968704 85.55568815 155.47743452 82.53125 157.03515625 C81.88446289 157.36837891 81.23767578 157.70160156 80.57128906 158.04492188 C64.31401533 166.03175791 46.41481765 169.45049382 28.6015625 164.03125 C18.09571946 159.86677168 9.49684955 152.6826866 4.8046875 142.21875 C0.34868006 129.93228289 -0.15946516 117.49223992 -0.09765625 104.55078125 C-0.0962413 103.41215134 -0.09482635 102.27352142 -0.09336853 101.10038757 C-0.08782209 97.50439702 -0.07527989 93.90847137 -0.0625 90.3125 C-0.05747807 87.85742278 -0.05291638 85.40234458 -0.04882812 82.94726562 C-0.03787027 76.96481918 -0.02064327 70.98242055 0 65 C-6.6 65 -13.2 65 -20 65 C-20 54.77 -20 44.54 -20 34 C-13.4 34 -6.8 34 0 34 C0 22.78 0 11.56 0 0 Z " fill="#221E1F" transform="translate(753,72)"/>
<path d="M0 0 C13.2 0 26.4 0 40 0 C40 42.24 40 84.48 40 128 C26.8 128 13.6 128 0 128 C0 85.76 0 43.52 0 0 Z " fill="#231E1F" transform="translate(992,106)"/>
<path d="M0 0 C4.25635656 3.94227427 6.69968801 8.27274812 7.3359375 14.05078125 C7.43149896 22.03016343 6.9577428 27.80779376 1.3515625 33.74609375 C-4.66021211 39.21969639 -9.93255934 40.47679017 -17.99609375 40.30859375 C-24.06632265 39.68499416 -28.15026083 37.18844827 -32.3125 32.8125 C-36.3640639 27.62074189 -38.39259794 22.04779762 -37.9375 15.4375 C-36.82667113 8.79566905 -34.49465726 3.87278285 -29.1875 -0.375 C-20.00003161 -6.58457808 -9.09584147 -6.40152763 0 0 Z " fill="#221E1F" transform="translate(1027,52)"/>
</svg>
