<?xml version="1.0" encoding="UTF-8"?>
<svg version="1.1" xmlns="http://www.w3.org/2000/svg" width="3840" height="819">
<path d="M0 0 C1.18130995 0.00037972 2.36261989 0.00075944 3.57972711 0.00115067 C4.23789924 -0.00000308 4.89607137 -0.00115682 5.57418811 -0.00234553 C7.80605705 -0.00501733 10.03785561 -0.00048644 12.26972097 0.00394398 C13.87123787 0.003507 15.4727547 0.0026309 17.07427114 0.00134999 C21.50539431 -0.0009053 25.93649356 0.00313713 30.36761369 0.00812577 C35.20799621 0.01247283 40.04837752 0.01103246 44.88876146 0.01030785 C54.29732308 0.0097748 63.70587521 0.01440561 73.11443439 0.02080918 C83.99053327 0.02799092 94.8666264 0.02880292 105.74272817 0.029594 C134.47649433 0.0348508 163.21025837 0.04881182 191.94402212 0.0616985 C256.10839712 0.0823235 320.27277212 0.1029485 386.38152212 0.1241985 C386.38152212 128.8241985 386.38152212 257.5241985 386.38152212 390.1241985 C257.68152212 390.1241985 128.98152212 390.1241985 -3.61847788 390.1241985 C-3.63910288 325.9598235 -3.65972788 261.7954485 -3.68097788 195.6866985 C-3.69008188 175.38726734 -3.69918589 155.08783619 -3.70856577 134.17327076 C-3.71308237 109.48540455 -3.71308237 109.48540455 -3.71392161 97.94730335 C-3.71485753 89.84651104 -3.71853995 81.74572556 -3.72405344 73.64493519 C-3.73039439 64.31467966 -3.73331957 54.98443072 -3.73192283 45.65417301 C-3.73131734 40.87580193 -3.73231343 36.0974456 -3.73769301 31.31907719 C-3.7425187 27.00674932 -3.74282804 22.69444679 -3.73937899 18.38211781 C-3.73895141 16.8150676 -3.74024975 15.24801588 -3.74336046 13.6809687 C-3.74732398 11.56141526 -3.74524118 9.44195523 -3.74152571 7.32240349 C-3.74190543 6.14109354 -3.74228515 4.9597836 -3.74267638 3.74267638 C-3.57553478 0.21882871 -3.52384767 0.1671416 0 0 Z " fill="#FFB900" transform="translate(432.61847788095474,428.8758015036583)"/>
<path d="M0 0 C128.7 0 257.4 0 390 0 C390.020625 64.164375 390.04125 128.32875 390.0625 194.4375 C390.071604 214.73693115 390.08070801 235.0363623 390.09008789 255.95092773 C390.09460449 280.63879395 390.09460449 280.63879395 390.09544373 292.17689514 C390.09637965 300.27768745 390.10006207 308.37847294 390.10557556 316.47926331 C390.11191651 325.80951884 390.11484169 335.13976778 390.11344495 344.47002548 C390.11283946 349.24839656 390.11383555 354.02675289 390.11921513 358.8051213 C390.12404082 363.11744918 390.12435015 367.42975171 390.12090111 371.74208069 C390.12047353 373.30913089 390.12177187 374.87618262 390.12488258 376.44322979 C390.1288461 378.56278324 390.1267633 380.68224326 390.12304783 382.80179501 C390.12342755 383.98310495 390.12380727 385.1644149 390.1241985 386.38152212 C390 389 390 389 389 390 C386.9358452 390.09790609 384.86827032 390.12371208 382.80179501 390.12304783 C382.14362288 390.12420157 381.48545075 390.12535532 380.80733401 390.12654402 C378.57546507 390.12921582 376.34366651 390.12468494 374.11180115 390.12025452 C372.51028425 390.1206915 370.90876742 390.1215676 369.30725098 390.12284851 C364.87612781 390.1251038 360.44502856 390.12106137 356.01390843 390.11607273 C351.17352591 390.11172566 346.3331446 390.11316604 341.49276066 390.11389065 C332.08419904 390.1144237 322.67564691 390.10979289 313.26708773 390.10338932 C302.39098885 390.09620758 291.51489572 390.09539557 280.63879395 390.09460449 C251.90502778 390.0893477 223.17126375 390.07538668 194.4375 390.0625 C130.273125 390.041875 66.10875 390.02125 0 390 C0 261.3 0 132.6 0 0 Z " fill="#F24F21" transform="translate(0,0)"/>
<path d="M0 0 C64.164375 -0.020625 128.32875 -0.04125 194.4375 -0.0625 C214.73693115 -0.071604 235.0363623 -0.08070801 255.95092773 -0.09008789 C280.63879395 -0.09460449 280.63879395 -0.09460449 292.17689514 -0.09544373 C300.27768745 -0.09637965 308.37847294 -0.10006207 316.47926331 -0.10557556 C325.80951884 -0.11191651 335.13976778 -0.11484169 344.47002548 -0.11344495 C349.24839656 -0.11283946 354.02675289 -0.11383555 358.8051213 -0.11921513 C363.11744918 -0.12404082 367.42975171 -0.12435015 371.74208069 -0.12090111 C373.30913089 -0.12047353 374.87618262 -0.12177187 376.44322979 -0.12488258 C378.56278324 -0.1288461 380.68224326 -0.1267633 382.80179501 -0.12304783 C383.98310495 -0.12342755 385.1644149 -0.12380727 386.38152212 -0.1241985 C389 0 389 0 390 1 C390.09880332 3.05798809 390.12555712 5.11943585 390.12584114 7.17979431 C390.12729458 7.83573755 390.12874802 8.49168079 390.13024551 9.16750109 C390.133931 11.39285861 390.13040738 13.61814871 390.12698364 15.84350586 C390.12813446 17.44407913 390.12972171 19.04465213 390.13171089 20.64522457 C390.13590967 25.06485235 390.13381106 29.48445871 390.13072467 33.90408659 C390.12847301 38.66214364 390.13194901 43.42019687 390.13470459 48.17825317 C390.1391638 57.50772709 390.13818515 66.83719299 390.13529195 76.16666722 C390.13303851 83.74529795 390.13272514 91.32392641 390.13381577 98.90255737 C390.133969 99.97897332 390.13412223 101.05538927 390.13428011 102.16442388 C390.13459982 104.35077262 390.13492403 106.53712136 390.1352527 108.72347009 C390.13810793 129.250889 390.13481979 149.77830346 390.12945233 170.30572164 C390.12498426 187.93981926 390.12576018 205.57391031 390.13037109 223.20800781 C390.13571609 243.65927139 390.13783324 264.11053106 390.13475883 284.56179523 C390.13444026 286.74034436 390.13412589 288.9188935 390.13381577 291.09744263 C390.13366149 292.16948171 390.13350721 293.24152079 390.13334826 294.34604591 C390.13248288 301.92030394 390.13394643 309.49455949 390.13629532 317.06881714 C390.13909269 326.29251153 390.13835639 335.51619741 390.13301457 344.73989081 C390.13037671 349.45079629 390.12937393 354.16168754 390.13266373 358.87259293 C390.13562495 363.17793262 390.13403681 367.4832448 390.12868617 371.78858197 C390.12756124 373.35316221 390.12815484 374.91774473 390.13056196 376.48232353 C390.13356511 378.59498485 390.13052237 380.70754957 390.12584114 382.82020569 C390.12567879 383.9979358 390.12551644 385.17566591 390.12534916 386.38908482 C390 389 390 389 389 390 C386.9358452 390.09790609 384.86827032 390.12371208 382.80179501 390.12304783 C382.14362288 390.12420157 381.48545075 390.12535532 380.80733401 390.12654402 C378.57546507 390.12921582 376.34366651 390.12468494 374.11180115 390.12025452 C372.51028425 390.1206915 370.90876742 390.1215676 369.30725098 390.12284851 C364.87612781 390.1251038 360.44502856 390.12106137 356.01390843 390.11607273 C351.17352591 390.11172566 346.3331446 390.11316604 341.49276066 390.11389065 C332.08419904 390.1144237 322.67564691 390.10979289 313.26708773 390.10338932 C302.39098885 390.09620758 291.51489572 390.09539557 280.63879395 390.09460449 C251.90502778 390.0893477 223.17126375 390.07538668 194.4375 390.0625 C130.273125 390.041875 66.10875 390.02125 0 390 C0 261.3 0 132.6 0 0 Z " fill="#00A4EF" transform="translate(0,429)"/>
<path d="M0 0 C128.7 0 257.4 0 390 0 C390.020625 64.164375 390.04125 128.32875 390.0625 194.4375 C390.071604 214.73693115 390.08070801 235.0363623 390.09008789 255.95092773 C390.09460449 280.63879395 390.09460449 280.63879395 390.09544373 292.17689514 C390.09637965 300.27768745 390.10006207 308.37847294 390.10557556 316.47926331 C390.11191651 325.80951884 390.11484169 335.13976778 390.11344495 344.47002548 C390.11283946 349.24839656 390.11383555 354.02675289 390.11921513 358.8051213 C390.12404082 363.11744918 390.12435015 367.42975171 390.12090111 371.74208069 C390.12047353 373.30913089 390.12177187 374.87618262 390.12488258 376.44322979 C390.1288461 378.56278324 390.1267633 380.68224326 390.12304783 382.80179501 C390.12342755 383.98310495 390.12380727 385.1644149 390.1241985 386.38152212 C390 389 390 389 389 390 C386.94201191 390.09880332 384.88056415 390.12555712 382.82020569 390.12584114 C382.16426245 390.12729458 381.50831921 390.12874802 380.83249891 390.13024551 C378.60714139 390.133931 376.38185129 390.13040738 374.15649414 390.12698364 C372.55592087 390.12813446 370.95534787 390.12972171 369.35477543 390.13171089 C364.93514765 390.13590967 360.51554129 390.13381106 356.09591341 390.13072467 C351.33785636 390.12847301 346.57980313 390.13194901 341.82174683 390.13470459 C332.49227291 390.1391638 323.16280701 390.13818515 313.83333278 390.13529195 C306.25470205 390.13303851 298.67607359 390.13272514 291.09744263 390.13381577 C289.4828187 390.13404561 289.4828187 390.13404561 287.83557612 390.13428011 C285.64922738 390.13459982 283.46287864 390.13492403 281.27652991 390.1352527 C260.749111 390.13810793 240.22169654 390.13481979 219.69427836 390.12945233 C202.06018074 390.12498426 184.42608969 390.12576018 166.79199219 390.13037109 C146.34072861 390.13571609 125.88946894 390.13783324 105.43820477 390.13475883 C103.25965564 390.13444026 101.0811065 390.13412589 98.90255737 390.13381577 C97.83051829 390.13366149 96.75847921 390.13350721 95.65395409 390.13334826 C88.07969606 390.13248288 80.50544051 390.13394643 72.93118286 390.13629532 C63.70748847 390.13909269 54.48380259 390.13835639 45.26010919 390.13301457 C40.54920371 390.13037671 35.83831246 390.12937393 31.12740707 390.13266373 C26.82206738 390.13562495 22.5167552 390.13403681 18.21141803 390.12868617 C16.64683779 390.12756124 15.08225527 390.12815484 13.51767647 390.13056196 C11.40501515 390.13356511 9.29245043 390.13052237 7.17979431 390.12584114 C6.0020642 390.12567879 4.82433409 390.12551644 3.61091518 390.12534916 C1 390 1 390 0 389 C-0.09790609 386.9358452 -0.12371208 384.86827032 -0.12304783 382.80179501 C-0.12420157 382.14362288 -0.12535532 381.48545075 -0.12654402 380.80733401 C-0.12921582 378.57546507 -0.12468494 376.34366651 -0.12025452 374.11180115 C-0.1206915 372.51028425 -0.1215676 370.90876742 -0.12284851 369.30725098 C-0.1251038 364.87612781 -0.12106137 360.44502856 -0.11607273 356.01390843 C-0.11172566 351.17352591 -0.11316604 346.3331446 -0.11389065 341.49276066 C-0.1144237 332.08419904 -0.10979289 322.67564691 -0.10338932 313.26708773 C-0.09620758 302.39098885 -0.09539557 291.51489572 -0.09460449 280.63879395 C-0.0893477 251.90502778 -0.07538668 223.17126375 -0.0625 194.4375 C-0.041875 130.273125 -0.02125 66.10875 0 0 Z " fill="#7EBA00" transform="translate(429,0)"/>
<path d="M0 0 C40.92 0 81.84 0 124 0 C129.74786954 13.7948869 129.74786954 13.7948869 132.3203125 20.41796875 C132.6162883 21.17668777 132.9122641 21.9354068 133.21720886 22.71711731 C134.18789815 25.2066921 135.15650332 27.69707151 136.125 30.1875 C136.82569029 31.98635722 137.52645731 33.78518455 138.22729492 35.58398438 C145.62671173 54.58350427 152.9944624 73.59534699 160.36071777 92.60774231 C164.34339651 102.88704972 168.32889369 113.1652633 172.31469727 123.44335938 C173.50351923 126.50907533 174.69221063 129.57484188 175.88085938 132.640625 C179.41464335 141.75490209 182.94885325 150.86901266 186.48550415 159.98217773 C195.8154357 184.0234748 205.12074717 208.07411162 214.4019165 232.13427734 C220.81625504 248.76170212 227.2421837 265.3845577 233.6875 282 C234.06874023 282.98281952 234.44998047 283.96563904 234.84277344 284.97824097 C237.1554125 290.93968463 239.46868369 296.90088287 241.78216553 302.86199951 C245.26549311 311.83750801 248.74826461 320.813232 252.23013306 329.78930664 C253.46905176 332.98272821 254.70850904 336.17594037 255.94799805 339.36914062 C256.70494168 341.32030229 257.46186033 343.27147365 258.21875 345.22265625 C258.72835014 346.53484886 258.72835014 346.53484886 259.24824524 347.87355042 C259.56786728 348.69782028 259.88748932 349.52209015 260.21679688 350.37133789 C260.51900146 351.14744415 260.82120605 351.92355042 261.13256836 352.72317505 C261.71721028 354.25773669 262.28280416 355.7996743 262.83032227 357.34786987 C263.97746189 361.41162879 263.97746189 361.41162879 267 364 C267.14187744 363.45867432 267.28375488 362.91734863 267.42993164 362.35961914 C269.52385973 354.87430471 272.4599247 347.80526312 275.49160767 340.66625977 C277.17576751 336.69795643 278.84093643 332.72168085 280.5078125 328.74609375 C280.86674088 327.89091156 281.22566925 327.03572937 281.59547424 326.15463257 C286.0740394 315.46629736 290.44142957 304.7326283 294.8125 294 C295.66622136 291.90501365 296.51998129 289.81004301 297.3737793 287.71508789 C298.65703991 284.56608977 299.9401905 281.41704703 301.2230072 278.26786804 C305.55547774 267.6328766 309.90109042 257.00327786 314.25 246.375 C314.80598373 245.01604614 314.80598373 245.01604614 315.37319946 243.62963867 C320.90128699 230.11831266 326.43950506 216.61116051 331.98260498 203.10598755 C339.57645655 184.60383699 347.14761491 166.09242086 354.71777344 147.58056641 C358.85159005 137.47207573 362.98717245 127.36430729 367.12243652 117.25640869 C368.24569796 114.51078742 369.36894748 111.76516128 370.4921875 109.01953125 C370.86303467 108.11303833 371.23388184 107.20654541 371.6159668 106.27258301 C373.8864098 100.72258386 376.15643641 95.1724146 378.42614746 89.62211609 C380.3256319 84.97718963 382.22530964 80.33234224 384.125 75.6875 C384.49548462 74.78158112 384.86596924 73.87566223 385.24768066 72.94229126 C389.31788391 62.99027277 393.39216885 53.03995398 397.4765625 43.09375 C397.83891998 42.21121048 398.20127747 41.32867096 398.57461548 40.41938782 C400.2820141 36.26120926 401.99015459 32.10333844 403.69970703 27.94604492 C404.315451 26.44711162 404.93117473 24.94817 405.546875 23.44921875 C405.80868561 22.81338867 406.07049622 22.17755859 406.34024048 21.52246094 C409.27740729 14.36788449 412.12722742 7.18193145 415 0 C453.61 0 492.22 0 532 0 C532 162.69 532 325.38 532 493 C503.62 493 475.24 493 446 493 C445.67 366.94 445.34 240.88 445 111 C425.99392424 158.92537429 425.99392424 158.92537429 407.02832031 206.86669922 C403.8762272 214.84458853 400.72199161 222.8216309 397.56799316 230.79876709 C396.50459226 233.48838497 395.44124973 236.17802593 394.37792969 238.86767578 C391.17260276 246.97549542 387.96714375 255.08326274 384.76116943 263.19082642 C377.66933541 281.12533383 370.57951431 299.0606254 363.5 317 C356.06057772 335.85137558 348.60960314 354.69817603 341.15722656 373.54443359 C339.01865725 378.95271134 336.88037615 384.361103 334.7421875 389.76953125 C334.39178406 390.65585236 334.04138062 391.54217346 333.68035889 392.45535278 C331.91641487 396.91715618 330.15251832 401.37897834 328.38867188 405.84082031 C325.14610375 414.04311144 321.90317732 422.24526019 318.6587677 430.44682312 C310.41428155 451.28819112 302.18460168 472.13502951 294 493 C274.86 493 255.72 493 236 493 C231.50051212 484.00102424 231.50051212 484.00102424 230.19506836 480.70678711 C229.89555267 479.95625565 229.59603699 479.20572418 229.28744507 478.43244934 C228.97473663 477.6387645 228.6620282 476.84507965 228.33984375 476.02734375 C227.82703354 474.73898872 227.82703354 474.73898872 227.30386353 473.42460632 C226.56560251 471.56900048 225.82887545 469.71278375 225.09353638 467.85601807 C223.08804411 462.79297201 221.07043334 457.73475169 219.0546875 452.67578125 C218.63697586 451.6265448 218.21926422 450.57730835 217.78889465 449.49627686 C213.41818776 438.52375667 208.99463868 427.57282028 204.5625 416.625 C203.76813272 414.66203409 202.97378058 412.69906206 202.17944336 410.73608398 C200.58366092 406.79299882 198.98748528 402.85007307 197.39111328 398.90722656 C193.81962257 390.08517262 190.25353789 381.26093329 186.68704224 372.43685913 C184.70562832 367.5346464 182.72390137 362.63256023 180.7421875 357.73046875 C180.34989456 356.76005142 179.95760162 355.78963409 179.55342102 354.78981018 C177.19874077 348.96507483 174.84386291 343.14041942 172.48883057 337.31582642 C163.3774107 314.78094597 154.27068018 292.24417964 145.16955566 269.70513916 C136.95835405 249.37025113 128.74071904 229.03796923 120.52023315 208.70683289 C117.74218446 201.83599558 114.96471983 194.96492237 112.1875 188.09375 C110.97097331 185.08403294 109.75443897 182.07431896 108.53790283 179.06460571 C107.79661834 177.23061427 107.05536356 175.39661083 106.31414795 173.56259155 C97.88451027 152.70498725 89.44057529 131.85318602 81 111 C80.67 237.06 80.34 363.12 80 493 C53.6 493 27.2 493 0 493 C0 330.31 0 167.62 0 0 Z " fill="#727272" transform="translate(1065,163)"/>
<path d="M0 0 C0.97243652 0.01401855 1.94487305 0.02803711 2.94677734 0.04248047 C5.44518962 0.08698846 7.94034438 0.16036526 10.4375 0.25 C11.45215332 0.27090698 11.45215332 0.27090698 12.48730469 0.29223633 C19.89590543 0.65510289 25.42484149 2.835669 33 5 C33 29.09 33 53.18 33 78 C27.43280436 76.32984131 21.90248247 74.65219057 16.375 72.875 C11.52674194 71.39625307 7.06199756 70.21578675 2 70 C0.46279297 69.92265625 0.46279297 69.92265625 -1.10546875 69.84375 C-16.18714243 69.4420184 -28.72422678 72.87448938 -41.3125 81.1875 C-64.15179519 105.08908799 -58.39351298 144.88862301 -59 174 C-18.41 174 22.18 174 64 174 C64 147.6 64 121.2 64 94 C76.375 90.24625 88.75 86.4925 101.5 82.625 C107.34235352 80.85116943 107.34235352 80.85116943 113.30273438 79.04150391 C118.09082031 77.59057617 118.09082031 77.59057617 120.33850098 76.91000366 C121.8950325 76.4383051 123.45133364 75.96584588 125.00744629 75.49276733 C127.37616021 74.77281344 129.74561361 74.05534154 132.11523438 73.33837891 C132.79844505 73.13010279 133.48165573 72.92182667 134.18556976 72.70723915 C138.77137606 71.32352661 143.34029556 70.16492611 148 69 C148 103.65 148 138.3 148 174 C175.72 174 203.44 174 232 174 C232 196.77 232 219.54 232 243 C204.28 243 176.56 243 148 243 C148.11986265 273.00200125 148.11986265 273.00200125 148.2578125 303.00390625 C148.31812043 315.24721578 148.37648128 327.49051159 148.421875 339.73388672 C148.45495142 348.65261654 148.49486746 357.5712859 148.54279006 366.48994875 C148.56790047 371.20656825 148.58972619 375.92314844 148.60334396 380.63981628 C148.61630614 385.0918248 148.63850824 389.54369743 148.66738319 393.99563026 C148.67634969 395.61757741 148.68212314 397.23954637 148.68421364 398.86151695 C148.71189576 417.09961037 148.9718379 439.02191749 161.25 453.6875 C172.81018548 463.40856506 185.81852326 465.96742476 200.64648438 465.23095703 C210.00671823 464.31241126 219.51704547 460.95295543 227.43359375 455.91796875 C229 455 229 455 231 455 C231 478.1 231 501.2 231 525 C214.86585366 530.76219512 214.86585366 530.76219512 206.125 532.25 C205.25359375 532.40984375 204.3821875 532.5696875 203.484375 532.734375 C195.39456159 534.19199904 187.50287702 535.15707848 179.28515625 535.203125 C178.47114853 535.20882507 177.65714081 535.21452515 176.81846619 535.22039795 C175.10156529 535.22979096 173.38464683 535.23635907 171.66772461 535.24023438 C169.10040851 535.2498579 166.53392302 535.28090156 163.96679688 535.3125 C138.66864262 535.47507005 111.80849329 530.11830333 93.00610352 512.06567383 C91.65568701 510.7254439 90.32714149 509.3632815 89 508 C87.98486328 506.98099609 87.98486328 506.98099609 86.94921875 505.94140625 C63.23368164 480.64833896 62.64001171 442.16201334 62.8125 409.6875 C62.81768688 407.67613419 62.8228544 405.66476822 62.82720375 403.65340042 C62.87741321 381.64753295 63.06814014 359.64198488 63.23046875 337.63671875 C63.23994349 336.35056986 63.24941822 335.06442097 63.25918007 333.73929787 C63.48147439 303.82598808 63.74596122 273.91306691 64 244 C23.41 244 -17.18 244 -59 244 C-59 338.05 -59 432.1 -59 529 C-87.05 529 -115.1 529 -144 529 C-144 434.95 -144 340.9 -144 244 C-163.47 244 -182.94 244 -203 244 C-203 221.23 -203 198.46 -203 175 C-183.53 175 -164.06 175 -144 175 C-144.11788227 156.52879176 -144.11788227 156.52879176 -144.27026367 138.05786133 C-144.49103143 97.95245145 -135.86351771 64.85804296 -108 35 C-101.87789983 28.87789983 -95.24391496 23.7228044 -88 19 C-87.23300781 18.48695313 -86.46601563 17.97390625 -85.67578125 17.4453125 C-59.88031011 0.98737554 -29.63573227 -0.53378783 0 0 Z " fill="#727272" transform="translate(3608,127)"/>
<path d="M0 0 C0.83144531 0.62261719 1.66289062 1.24523437 2.51953125 1.88671875 C41.33368122 32.02116904 60.4667088 75.348831 66.65673828 123.23339844 C72.9119286 173.64863076 64.26055869 230.52095583 33.625 272.1875 C3.16370197 311.27594887 -35.89564994 332.62362218 -84.94091797 339.40673828 C-134.14388767 345.49608753 -188.78850209 338.53198523 -229.26171875 307.98046875 C-234.81508035 303.62714391 -239.95139637 298.92857739 -245 294 C-245.77472656 293.28714844 -246.54945313 292.57429688 -247.34765625 291.83984375 C-258.70163064 281.12665804 -266.86881114 267.7651905 -274 254 C-274.81404297 252.43572266 -274.81404297 252.43572266 -275.64453125 250.83984375 C-300.6794792 199.64700824 -299.63572785 134.50557669 -281.51171875 81.43188477 C-278.58353619 73.2024113 -275.24760133 65.35990719 -270.97509766 57.74121094 C-269.98211221 55.96805816 -269.02686685 54.17790892 -268.07421875 52.3828125 C-248.28872277 15.73580999 -212.96733894 -9.86449265 -173.5 -21.75 C-118.96490529 -37.48660437 -47.01365967 -35.35024027 0 0 Z M-176.99609375 66.7421875 C-199.82868266 92.4677945 -206.46481976 123.08409186 -206.3125 156.6875 C-206.31067719 157.52316498 -206.30885437 158.35882996 -206.30697632 159.21981812 C-206.2612585 171.67487108 -205.90101328 183.83059194 -203 196 C-202.75056641 197.07652832 -202.75056641 197.07652832 -202.49609375 198.17480469 C-196.60074101 222.68418785 -184.22448196 243.26612536 -162.8125 257.25 C-155.53576481 261.51270286 -148.03084291 264.50704197 -140 267 C-138.91203125 267.34160156 -137.8240625 267.68320312 -136.703125 268.03515625 C-112.59470122 274.11885474 -84.005411 271.48846333 -62.17578125 259.44140625 C-41.86194493 247.17377567 -28.67485526 227.00245451 -22.546875 204.28515625 C-19.32018389 190.80219695 -17.35891754 176.85733817 -17 163 C-16.96003906 161.7934375 -16.92007813 160.586875 -16.87890625 159.34375 C-16.29570166 125.5864963 -21.79166667 88.4733342 -45.84936523 63.00537109 C-62.39203487 46.2877833 -85.87687946 39.24928272 -108.9375 38.75 C-135.32715987 39.349765 -158.31461228 47.49460053 -176.99609375 66.7421875 Z " fill="#727272" transform="translate(2658,324)"/>
<path d="M0 0 C0.53641113 0.43393066 1.07282227 0.86786133 1.62548828 1.31494141 C39.27328568 31.87560123 57.17640828 74.70079557 63 122 C68.34549845 174.1720649 59.6613044 232.14592891 26 274 C25.54737793 274.56396484 25.09475586 275.12792969 24.62841797 275.70898438 C-5.52841352 312.91803518 -47.35896504 331.88653263 -94.48901367 337.0546875 C-145.56188564 341.93417296 -197.74957217 332.94441671 -238.6875 300.625 C-275.23264234 269.65637567 -293.3009489 224.53119905 -297.3125 177.5 C-301.44548009 121.4127894 -289.12493898 64.73627218 -251.88793945 21.40478516 C-250.5998368 19.92960798 -249.30034001 18.4644016 -248 17 C-247.41992188 16.34644531 -246.83984375 15.69289063 -246.2421875 15.01953125 C-189.23589076 -45.28109923 -63.79490727 -52.66677307 0 0 Z M-183.07763672 66.28271484 C-195.62061257 80.68658592 -202.86684222 98.57349002 -207 117 C-207.16516113 117.72123047 -207.33032227 118.44246094 -207.50048828 119.18554688 C-215.23521547 154.79568692 -211.89537226 198.89374336 -192 230 C-178.08180653 249.90057488 -158.33413673 261.29273827 -134.86328125 266.13671875 C-128.07104771 267.29899774 -121.3150049 267.38417933 -114.4375 267.375 C-113.45079315 267.37468277 -113.45079315 267.37468277 -112.44415283 267.37435913 C-88.88806838 267.29897109 -67.88379309 260.91886566 -50.40625 244.4921875 C-26.20843744 219.43016734 -20.4951233 183.07653317 -20.77026367 149.52929688 C-21.41384761 117.55730264 -27.17939573 83.93279029 -49.75 59.75 C-67.59298069 42.97121299 -91.53885122 35.26366707 -115.859375 35.81640625 C-142.65958104 37.38308496 -164.67284752 45.99025496 -183.07763672 66.28271484 Z " fill="#727272" transform="translate(3333,327)"/>
<path d="M0 0 C0.79212891 0.00315216 1.58425781 0.00630432 2.40039062 0.009552 C24.70291061 0.13935473 44.87625192 4.71253736 66.39453125 10.25390625 C67.08231155 10.430961 67.77009186 10.60801575 68.47871399 10.79043579 C72.75773826 11.90132591 76.99704975 13.09737136 81.25 14.3125 C81.25 41.3725 81.25 68.4325 81.25 96.3125 C77.51508159 95.3787704 74.97552265 94.2183907 71.62109375 92.3984375 C70.5127417 91.80522705 69.40438965 91.2120166 68.26245117 90.60083008 C67.67901947 90.28787994 67.09558777 89.97492981 66.49447632 89.65249634 C50.70656031 81.22112899 35.02734902 74.24531139 17.25 71.3125 C16.18265625 71.12945312 15.1153125 70.94640625 14.015625 70.7578125 C-2.31824567 68.82621369 -22.75752984 68.49233003 -36.75 78.3125 C-43.59829396 84.47332044 -48.30957727 92.30542278 -48.98828125 101.5625 C-49.19601639 112.0585912 -48.21849227 121.3819324 -41.5625 129.9375 C-29.20375638 142.47666324 -10.60558629 148.62307379 5.25 155.3125 C51.58987439 174.90498336 51.58987439 174.90498336 70.25 191.3125 C71.22839844 192.09367188 72.20679687 192.87484375 73.21484375 193.6796875 C86.7524167 204.95848375 95.14165928 222.51154873 99.25 239.3125 C99.58644531 240.61380859 99.58644531 240.61380859 99.9296875 241.94140625 C105.32951537 267.35018534 100.70900516 295.52521594 87.08984375 317.578125 C67.43961063 346.78229312 37.41885595 362.64713645 3.62109375 369.50390625 C-8.72740418 371.86236302 -21.20232288 372.82672201 -33.75 373.3125 C-35.3278125 373.37630859 -35.3278125 373.37630859 -36.9375 373.44140625 C-69.97835186 374.08673539 -105.33565604 367.22702779 -135.75 354.3125 C-137.49292177 352.56957823 -136.86980303 350.30626505 -136.87442017 347.98425293 C-136.87082489 347.22108765 -136.86722961 346.45792236 -136.86352539 345.67163086 C-136.86367142 344.87169205 -136.86381744 344.07175323 -136.8639679 343.24757385 C-136.86326855 340.59080335 -136.85547518 337.93410207 -136.84765625 335.27734375 C-136.84579215 333.44031309 -136.84436821 331.60328194 -136.84336853 329.76625061 C-136.83954275 324.92140338 -136.82971196 320.07658592 -136.81866455 315.23175049 C-136.80845172 310.29187422 -136.80387119 305.35199315 -136.79882812 300.41210938 C-136.78808974 290.71222647 -136.7710126 281.01236571 -136.75 271.3125 C-133.51419496 271.3125 -132.85428744 271.66180228 -130.2578125 273.3671875 C-129.56397461 273.81223633 -128.87013672 274.25728516 -128.15527344 274.71582031 C-127.02653809 275.44430176 -127.02653809 275.44430176 -125.875 276.1875 C-92.76086462 296.87879288 -52.50274084 309.51540302 -13.375 302.0625 C-2.89771279 299.56223828 5.2636867 295.6006168 11.25 286.3125 C15.44279894 276.3881308 14.96571136 267.67029483 11.62890625 257.625 C1.96473994 234.40909906 -26.8729913 225.42915938 -48.3125 216.3125 C-82.15750562 201.91049547 -113.73526198 184.87983301 -128.75 149.3125 C-133.49708836 136.60664333 -135.14303896 124.26547676 -135.125 110.75 C-135.12478851 110.09219543 -135.12457703 109.43439087 -135.12435913 108.75665283 C-135.04866247 85.10413671 -128.17736228 63.57671196 -112.75 45.3125 C-112.10546875 44.52230469 -111.4609375 43.73210937 -110.796875 42.91796875 C-93.71875621 22.8353661 -69.38417622 10.67143366 -44.125 4.5 C-43.32739258 4.30494873 -42.52978516 4.10989746 -41.70800781 3.90893555 C-27.88769339 0.76707305 -14.11540915 -0.07495073 0 0 Z " fill="#727272" transform="translate(2899.75,290.6875)"/>
<path d="M0 0 C0 26.73 0 53.46 0 81 C-5.17661922 78.12410043 -10.06995196 75.36925655 -15 72.1875 C-30.91832967 62.3773666 -48.33917627 55.31942442 -67 53 C-68.61648438 52.79890625 -68.61648438 52.79890625 -70.265625 52.59375 C-98.27537725 49.92615455 -127.52961163 56.91982302 -149.4453125 75.01953125 C-174.04899867 96.50073125 -185.08812209 124.17105107 -187.60131836 156.26513672 C-189.51023721 187.06167015 -184.8218902 221.43316041 -164.10546875 245.67578125 C-163.41066406 246.44277344 -162.71585938 247.20976563 -162 248 C-160.91138672 249.22783203 -160.91138672 249.22783203 -159.80078125 250.48046875 C-143.2106606 268.16745688 -118.22677331 279.0162991 -94.01293945 280.13842773 C-60.58604588 281.10797596 -31.40464102 272.17374185 -4.16796875 252.2109375 C-1 250 -1 250 1 250 C1.23190215 260.06581546 1.40947986 270.13099386 1.51812172 280.19893837 C1.57027191 284.8743092 1.64096998 289.54785038 1.75439453 294.22216797 C1.86321609 298.73514063 1.92287254 303.2463565 1.94877243 307.76054001 C1.96722262 309.48075403 2.00325684 311.20087381 2.05730057 312.92033768 C2.46355554 326.38377295 2.46355554 326.38377295 -1.12538147 330.34709167 C-3.72044599 331.9416078 -6.12627583 333.0088637 -9 334 C-10.59025125 334.71337611 -12.17799348 335.43240714 -13.76171875 336.16015625 C-15.39762226 336.80965264 -17.03988207 337.4433223 -18.6875 338.0625 C-19.5861377 338.40047607 -20.48477539 338.73845215 -21.41064453 339.08666992 C-71.9251633 357.35685807 -135.10617343 356.32204864 -183.875 333.6875 C-192.45232735 329.55639714 -200.34226533 324.64241928 -208 319 C-208.91523437 318.32839844 -209.83046875 317.65679688 -210.7734375 316.96484375 C-247.65975803 288.22009847 -269.51415499 246.54888655 -275.3125 200.5 C-279.77874173 157.80391475 -273.56824709 111.82771321 -252.99414062 73.83642578 C-252.03562786 72.06581355 -251.1032094 70.28115135 -250.171875 68.49609375 C-229.75068116 30.78552782 -194.34815984 2.16083405 -153.32861328 -10.12866211 C-103.34327008 -24.2226903 -47.01059542 -23.50529771 0 0 Z " fill="#727272" transform="translate(2092,313)"/>
<path d="M0 0 C11.56674069 -0.32663553 22.49744564 1.80860869 33.5390625 5.12109375 C33.5390625 33.17109375 33.5390625 61.22109375 33.5390625 90.12109375 C30.10389394 88.74702633 27.10629935 87.39677339 23.88671875 85.66796875 C18.70789329 83.05892112 13.63036831 81.57864375 7.9765625 80.37109375 C7.02056152 80.16355469 6.06456055 79.95601563 5.07958984 79.7421875 C-14.77845819 75.63476806 -32.8634484 76.24356182 -50.61083984 86.90283203 C-70.15728802 99.77387669 -80.34233384 120.99689118 -85.4609375 143.12109375 C-88.13872259 157.20117954 -88.90724265 171.22286345 -88.89331055 185.51904297 C-88.90236174 187.44345209 -88.91269694 189.36785552 -88.92419434 191.29225159 C-88.951397 196.43749484 -88.96099794 201.58262768 -88.96704841 206.72793341 C-88.97652941 212.13443081 -89.00273932 217.54084877 -89.02705383 222.94729614 C-89.07045814 233.14988762 -89.09916426 243.35246345 -89.12237722 253.55511868 C-89.15467039 267.36689647 -89.21009994 281.1785811 -89.26412296 294.99028778 C-89.34843963 316.70052844 -89.40221707 338.41073379 -89.4609375 360.12109375 C-117.1809375 360.12109375 -144.9009375 360.12109375 -173.4609375 360.12109375 C-173.4609375 243.30109375 -173.4609375 126.48109375 -173.4609375 6.12109375 C-145.7409375 6.12109375 -118.0209375 6.12109375 -89.4609375 6.12109375 C-89.1309375 23.61109375 -88.8009375 41.10109375 -88.4609375 59.12109375 C-85.8209375 53.84109375 -83.1809375 48.56109375 -80.4609375 43.12109375 C-77.25659577 38.5675555 -74.10941193 34.28460067 -70.4609375 30.12109375 C-69.77257813 29.3319458 -69.77257813 29.3319458 -69.0703125 28.52685547 C-61.84098839 20.40627883 -54.20461669 14.88738608 -44.4609375 10.12109375 C-43.48511719 9.64027344 -42.50929688 9.15945313 -41.50390625 8.6640625 C-28.2534247 2.66418645 -14.39733462 0.70844028 0 0 Z " fill="#727272" transform="translate(2327.4609375,295.87890625)"/>
<path d="M0 0 C27.72 0 55.44 0 84 0 C84 116.82 84 233.64 84 354 C56.28 354 28.56 354 0 354 C0 237.18 0 120.36 0 0 Z " fill="#727272" transform="translate(1676,302)"/>
<path d="M0 0 C8.79969503 8.20422694 15.27452176 19.70194216 16.06640625 31.83984375 C16.42941382 45.73342939 14.1960225 57.36958171 4.828125 68.1875 C2.31584456 70.76019601 -0.30454814 73.02033435 -3.171875 75.1875 C-3.77515625 75.64898437 -4.3784375 76.11046875 -5 76.5859375 C-17.53104097 85.27342389 -33.97504986 86.54102849 -48.640625 84.11328125 C-63.53704511 80.20791447 -73.28679561 71.09444553 -81.171875 58.1875 C-87.1176726 46.14969667 -87.98285646 33.0039725 -84.265625 20.0625 C-79.02996611 6.30019664 -68.58521683 -2.36792708 -55.546875 -8.4375 C-37.451351 -15.80975052 -14.98165848 -12.50267902 0 0 Z " fill="#727272" transform="translate(1753.171875,164.8125)"/>
</svg>
