<?xml version="1.0" encoding="UTF-8"?>
<svg version="1.1" xmlns="http://www.w3.org/2000/svg" width="1280" height="196">
<path d="M0 0 C12.54 0 25.08 0 38 0 C42.49944697 11.24861742 42.49944697 11.24861742 43.9987793 15.78515625 C44.33560226 16.79900391 44.67242523 17.81285156 45.01945496 18.85742188 C45.36752701 19.91509766 45.71559906 20.97277344 46.07421875 22.0625 C46.44352005 23.17560547 46.81282135 24.28871094 47.1933136 25.43554688 C48.36093457 28.95608109 49.52449181 32.47793953 50.6875 36 C51.86177208 39.5504377 53.03692807 43.10057679 54.21382141 46.65014648 C54.9433303 48.85093339 55.67123466 51.05225293 56.39738464 53.25415039 C56.72475113 54.24278076 57.05211761 55.23141113 57.3894043 56.25 C57.67712204 57.12140625 57.96483978 57.9928125 58.26127625 58.890625 C58.95659382 61.01855974 58.95659382 61.01855974 60 63 C60.38744385 61.83243164 60.7748877 60.66486328 61.17407227 59.46191406 C62.64672855 55.02549996 64.1215409 50.58980486 65.59692383 46.15429688 C66.22867415 44.25409414 66.85988094 42.35371059 67.49047852 40.453125 C70.90200678 30.1722545 74.3472627 19.90412122 77.90234375 9.671875 C78.19903458 8.81241272 78.4957254 7.95295044 78.80140686 7.06744385 C80.88157908 1.11842092 80.88157908 1.11842092 82 0 C84.21855264 -0.08783542 86.43988496 -0.10694609 88.66015625 -0.09765625 C89.65685585 -0.09553383 89.65685585 -0.09553383 90.6736908 -0.09336853 C92.80333899 -0.08775518 94.93288339 -0.07520054 97.0625 -0.0625 C98.50325369 -0.05748671 99.94400903 -0.05292351 101.38476562 -0.04882812 C104.92321102 -0.03778145 108.46159539 -0.02050792 112 0 C115.01176439 7.25782652 117.61840126 14.60008333 120.07421875 22.0625 C120.44352005 23.17560547 120.81282135 24.28871094 121.1933136 25.43554688 C122.36093457 28.95608109 123.52449181 32.47793953 124.6875 36 C125.86177208 39.5504377 127.03692807 43.10057679 128.21382141 46.65014648 C128.9433303 48.85093339 129.67123466 51.05225293 130.39738464 53.25415039 C130.72475113 54.24278076 131.05211761 55.23141113 131.3894043 56.25 C131.67712204 57.12140625 131.96483978 57.9928125 132.26127625 58.890625 C132.95659382 61.01855974 132.95659382 61.01855974 134 63 C134.24834091 62.24022858 134.49668182 61.48045715 134.75254822 60.69766235 C137.09055304 53.54572896 139.4300442 46.39428434 141.77121639 39.24338722 C142.97484857 35.56682414 144.17790037 31.89007323 145.37963867 28.21289062 C146.53889575 24.66576736 147.69966049 21.1191408 148.86148262 17.5728569 C149.30498817 16.21822144 149.74794553 14.86340638 150.19035149 13.50841141 C150.80897198 11.61402303 151.42970387 9.72032452 152.05053711 7.82666016 C152.40361435 6.74744293 152.75669159 5.66822571 153.12046814 4.55630493 C154 2 154 2 155 0 C167.87 0 180.74 0 194 0 C193.30435563 3.47822186 192.60368347 6.39462627 191.44384766 9.68359375 C191.12416519 10.5951825 190.80448273 11.50677124 190.47511292 12.44598389 C190.12496628 13.4331842 189.77481964 14.42038452 189.4140625 15.4375 C189.04502304 16.48609192 188.67598358 17.53468384 188.29576111 18.61505127 C187.07574417 22.0779719 185.85057108 25.53904151 184.625 29 C183.77453972 31.40848681 182.92419954 33.81701604 182.07397461 36.22558594 C175.94176155 53.58067075 169.76431887 70.91967516 163.5625 88.25 C163.15872131 89.37970215 162.75494263 90.5094043 162.33892822 91.67333984 C161.18770423 94.89236482 160.03378389 98.11040928 158.87890625 101.328125 C158.54422836 102.26448792 158.20955048 103.20085083 157.86473083 104.16558838 C157.54529007 105.05357117 157.2258493 105.94155396 156.89672852 106.85644531 C156.62538589 107.61290344 156.35404327 108.36936157 156.07447815 109.14874268 C154.45037515 113.45849581 152.71048219 117.72379452 151 122 C140.11 122 129.22 122 118 122 C116.56785156 117.69195312 115.13570312 113.38390625 113.66015625 108.9453125 C112.75342042 106.21999686 111.84659649 103.49471118 110.93945312 100.76953125 C109.49888926 96.44185663 108.05865691 92.11407362 106.62036133 87.78564453 C105.46105701 84.29688431 104.3002974 80.80861144 103.13851738 77.3206749 C102.69503098 75.98836477 102.25207361 74.65587842 101.80964851 73.32321548 C101.1909779 71.45996889 100.57026921 69.59739938 99.94946289 67.73486328 C99.59638565 66.67341095 99.24330841 65.61195862 98.87953186 64.51834106 C98.07594519 62.04581176 98.07594519 62.04581176 97 60 C96.75165909 60.74724335 96.50331818 61.49448669 96.24745178 62.26437378 C93.90939297 69.29856848 91.56989948 76.33228357 89.22878361 83.36546135 C88.02518017 86.98149529 86.82213683 90.59771357 85.62036133 94.21435547 C84.46105701 97.70311569 83.3002974 101.19138856 82.13851738 104.6793251 C81.69503098 106.01163523 81.25207361 107.34412158 80.80964851 108.67678452 C80.1909779 110.54003111 79.57026921 112.40260062 78.94946289 114.26513672 C78.59638565 115.32658905 78.24330841 116.38804138 77.87953186 117.48165894 C77 120 77 120 76 122 C65.11 122 54.22 122 43 122 C35.7507584 102.31928072 28.61922424 82.60514901 21.62921143 62.83129883 C20.01349005 58.2617143 18.39513174 53.69306288 16.77700806 49.12432861 C15.86837006 46.55879386 14.96054855 43.99297235 14.05331421 41.42694092 C11.74945815 34.91412824 9.43111542 28.40686511 7.09033203 21.90722656 C6.61972321 20.59832928 6.14914667 19.28942038 5.67860413 17.98049927 C4.78887971 15.50579754 3.89505811 13.03270455 2.99900818 10.56027222 C2.60431839 9.46288727 2.2096286 8.36550232 1.80297852 7.23486328 C1.45364761 6.26880157 1.10431671 5.30273987 0.74440002 4.30740356 C0 2 0 2 0 0 Z " fill="#2F4BB2" transform="translate(586,68)"/>
<path d="M0 0 C4.18202819 1.70932105 8.53137322 -0.68214632 12.53125 -2.1953125 C24.10190985 -6.56038806 39.14273562 -7.6874812 50.6484375 -2.51171875 C60.49527179 3.07478488 66.29848761 10.05085456 69.84375 20.8671875 C74.19898658 39.16955076 69.16790621 55.95659488 59.96875 71.8046875 C55.0833775 79.46933688 49.21358237 86.22422081 42.96875 92.8046875 C41.71964844 94.13306641 41.71964844 94.13306641 40.4453125 95.48828125 C29.50347034 106.79912982 16.81861976 115.8019672 3.96875 124.8046875 C-0.90241026 122.14433196 -5.26753562 119.27307466 -9.59375 115.8046875 C-10.1909082 115.32974854 -10.78806641 114.85480957 -11.40332031 114.36547852 C-33.50420176 96.66800398 -59.47026018 74.60031259 -64.03125 44.8046875 C-64.974582 30.41102879 -63.93321077 17.72284204 -55.03125 5.8046875 C-42.19663844 -8.50728942 -15.97715719 -9.4019425 0 0 Z " fill="#CAC7C8" transform="translate(1156.03125,67.1953125)"/>
<path d="M0 0 C-1.6226659 11.47975576 -4.36513752 22.71977732 -7 34 C-12.68596094 33.32656183 -18.04681584 32.01648818 -23.5625 30.5 C-32.10870906 28.16131887 -39.93472813 26.80304121 -48.8125 26.75 C-49.66392578 26.729375 -50.51535156 26.70875 -51.39257812 26.6875 C-58.69800703 26.64298863 -65.02096454 27.82778664 -71 32.1875 C-73.5803732 35.81614982 -74.24344535 38.58320582 -74 43 C-73.4534415 46.34567018 -73.4534415 46.34567018 -71 49 C-61.39375654 54.58469653 -50.05555921 57.40077155 -39.53100586 60.77050781 C-22.41751664 66.26834066 -6.92800833 72.1195604 2 89 C7.66624517 100.84557554 6.80373073 114.80282472 3.06640625 127.0625 C0.19507786 134.85184761 -4.08754581 140.25235289 -10 146 C-10.55429688 146.57492188 -11.10859375 147.14984375 -11.6796875 147.7421875 C-25.15507634 160.68124245 -46.07175185 162.45701016 -63.80078125 162.2109375 C-80.96369624 161.68958137 -98.18424411 157.6777636 -114 151 C-113.36371702 143.48390735 -111.80454831 136.37858146 -110 129.0625 C-109.72671875 127.92748047 -109.4534375 126.79246094 -109.171875 125.62304688 C-107.14405488 117.28810976 -107.14405488 117.28810976 -106 115 C-104.824375 115.391875 -103.64875 115.78375 -102.4375 116.1875 C-101.21160156 116.59355469 -101.21160156 116.59355469 -99.9609375 117.0078125 C-97.77453821 117.74045817 -95.59292356 118.48741864 -93.4140625 119.2421875 C-92.13021259 119.68230409 -90.84635842 120.12240823 -89.5625 120.5625 C-87.77005859 121.18318359 -87.77005859 121.18318359 -85.94140625 121.81640625 C-77.30686266 124.53832116 -68.96708821 125.3635918 -59.9375 125.375 C-58.91333984 125.39949219 -57.88917969 125.42398438 -56.83398438 125.44921875 C-49.55552912 125.47712337 -42.93396522 124.52462097 -37.33178711 119.50537109 C-34.5432385 116.35336547 -34 113.66729344 -34 109.5 C-35.26508701 105.07219548 -37.13388778 103.23086196 -41 101 C-50.89898376 96.32181658 -61.3829656 93.15082361 -71.80566406 89.87768555 C-86.7670807 85.16144051 -100.82943859 79.05973662 -108.74609375 64.71484375 C-114.23189997 52.83747513 -115.08076226 38.05592945 -111.02734375 25.578125 C-105.35139157 11.33429064 -95.91600914 1.52312929 -82 -5 C-54.4442535 -15.98785392 -26.63803303 -10.24539732 0 0 Z " fill="#2F4BB2" transform="translate(116,28)"/>
<path d="M0 0 C11.55 0 23.1 0 35 0 C35.33 18.48 35.66 36.96 36 56 C41.61 54.68 47.22 53.36 53 52 C57.21236561 51.6532193 61.06903452 51.41850661 65.25 51.5 C66.27287109 51.51208496 67.29574219 51.52416992 68.34960938 51.53662109 C79.70214695 51.8343275 89.52456084 53.95124199 98 62 C98.55300781 62.52464844 99.10601563 63.04929688 99.67578125 63.58984375 C108.43887193 72.83131655 110.33650261 86.13422939 110.22705078 98.39697266 C110.22734283 99.27625427 110.22763489 100.15553589 110.22793579 101.0614624 C110.22655734 103.92910092 110.21106709 106.79647013 110.1953125 109.6640625 C110.19157708 111.66759092 110.18873261 113.67112119 110.18673706 115.6746521 C110.17914229 120.91889592 110.15952995 126.16302695 110.1373291 131.40722656 C110.11678066 136.77016678 110.10771619 142.13312542 110.09765625 147.49609375 C110.07627975 157.99745307 110.04113194 168.49869946 110 179 C98.45 179 86.9 179 75 179 C74.95101562 173.55757812 74.90203125 168.11515625 74.8515625 162.5078125 C74.81614528 159.0442531 74.78016767 155.58071743 74.7421875 152.1171875 C74.68205769 146.62894221 74.62391782 141.14072984 74.578125 135.65234375 C74.54104385 131.22371031 74.49462435 126.79526124 74.44193649 122.36678696 C74.42351309 120.68368667 74.40836149 119.00054704 74.39665604 117.31738663 C74.90401766 102.81712208 74.90401766 102.81712208 70.375 89.5 C63.11315405 84.91357098 55.17312216 85.72615565 47 87 C43.04 87.99 39.08 88.98 35 90 C35 119.37 35 148.74 35 179 C23.45 179 11.9 179 0 179 C0 119.93 0 60.86 0 0 Z " fill="#2F4BB2" transform="translate(476,11)"/>
<path d="M0 0 C8.7419522 7.57458984 14.94257243 15.9568172 19.01171875 26.79296875 C19.33269531 27.63730469 19.65367187 28.48164062 19.984375 29.3515625 C25.1780139 45.99536344 23.29688133 66.41141059 15.88671875 81.98046875 C12.44154874 88.51466251 8.29333839 93.66361202 3.01171875 98.79296875 C2.20154297 99.63408203 2.20154297 99.63408203 1.375 100.4921875 C-10.18913422 111.5902609 -26.11628978 115.00174168 -41.55078125 115.16796875 C-42.98732056 115.18911743 -42.98732056 115.18911743 -44.45288086 115.21069336 C-54.41389352 115.14332584 -63.27904752 112.63512719 -72.11328125 108.10546875 C-72.79849854 107.75444092 -73.48371582 107.40341309 -74.18969727 107.04174805 C-87.99157838 99.72294037 -96.98661465 87.55080188 -102.05859375 72.89453125 C-107.99725499 53.08235887 -105.698563 33.09717913 -95.94921875 14.9765625 C-86.80366031 0.12869372 -72.53495123 -8.03779157 -55.98828125 -12.20703125 C-36.03571622 -15.71221159 -16.39881476 -12.11154293 0 0 Z M-61.42578125 29.16796875 C-67.5441634 37.1356924 -68.82763803 46.1837179 -67.75 55.953125 C-66.40998687 63.62774566 -62.80228221 71.03296803 -56.48828125 75.79296875 C-49.2301239 80.25831338 -41.58654112 81.07861564 -33.30078125 79.17578125 C-25.8392369 76.60518823 -21.64724586 72.26665697 -17.671875 65.578125 C-13.39014167 56.61184718 -13.56474978 46.05086509 -16.67578125 36.73046875 C-19.79753094 29.37361808 -23.82427958 25.30984229 -30.98828125 21.79296875 C-42.03566117 18.28324677 -53.54662257 20.61290185 -61.42578125 29.16796875 Z " fill="#2F4BB2" transform="translate(232.98828125,75.20703125)"/>
<path d="M0 0 C0.78761719 0.62261719 1.57523438 1.24523437 2.38671875 1.88671875 C3.10214844 2.43714844 3.81757812 2.98757812 4.5546875 3.5546875 C14.13513832 11.94916375 20.09672758 26.43830398 21.38671875 38.88671875 C21.83015158 48.28503117 21.93501638 57.59693298 20.38671875 66.88671875 C-5.02328125 66.88671875 -30.43328125 66.88671875 -56.61328125 66.88671875 C-52.93647788 77.87240671 -52.93647788 77.87240671 -44.61328125 83.88671875 C-28.51442433 90.26551111 -11.09937759 85.59790321 4.38671875 79.88671875 C6.38534498 79.21594485 8.38514994 78.5486604 10.38671875 77.88671875 C11.25463094 82.30079968 12.10366446 86.71830509 12.94921875 91.13671875 C13.31950195 93.01810547 13.31950195 93.01810547 13.69726562 94.9375 C13.92607422 96.14277344 14.15488281 97.34804687 14.390625 98.58984375 C14.71268921 100.25515137 14.71268921 100.25515137 15.04125977 101.95410156 C15.56448326 106.3957698 15.56448326 106.3957698 14.38671875 108.88671875 C12.64355469 109.93579102 12.64355469 109.93579102 10.37109375 110.703125 C9.11039063 111.1372168 9.11039063 111.1372168 7.82421875 111.58007812 C6.49390625 112.01030273 6.49390625 112.01030273 5.13671875 112.44921875 C4.29625 112.73990234 3.45578125 113.03058594 2.58984375 113.33007812 C-8.90631255 117.19964278 -19.83226941 119.43357474 -31.98828125 119.32421875 C-33.16640381 119.31737061 -34.34452637 119.31052246 -35.55834961 119.3034668 C-44.47266732 119.13946743 -52.25547965 118.17787378 -60.61328125 114.88671875 C-61.5259375 114.53609375 -62.43859375 114.18546875 -63.37890625 113.82421875 C-75.25460573 108.57851101 -85.02509077 98.04606134 -90.36328125 86.32421875 C-97.69183599 67.28932575 -97.73627171 45.57826819 -90.42578125 26.51171875 C-83.63750686 11.74318132 -72.60640867 1.04637876 -57.61328125 -5.11328125 C-39.19236758 -11.81418423 -16.41348959 -11.70289168 0 0 Z M-49.37109375 26.98046875 C-52.88890396 32.07874442 -55.61328125 36.57840896 -55.61328125 42.88671875 C-42.41328125 42.88671875 -29.21328125 42.88671875 -15.61328125 42.88671875 C-16.60616632 34.94363822 -17.53267592 29.26713083 -23.67578125 23.94921875 C-31.64236249 18.35566171 -43.03450433 19.43288669 -49.37109375 26.98046875 Z " fill="#2F4BB2" transform="translate(868.61328125,71.11328125)"/>
<path d="M0 0 C11.55 0 23.1 0 35 0 C35.03738281 5.40503906 35.07476562 10.81007813 35.11328125 16.37890625 C35.14357036 19.81057829 35.17472433 23.24219904 35.20898438 26.67382812 C35.26323746 32.11626555 35.31435026 37.55860155 35.34643555 43.0012207 C35.37251502 47.39100752 35.41295006 51.78045228 35.46318626 56.17002678 C35.47982364 57.84164094 35.49135737 59.51331422 35.49761391 61.18499947 C35.50728932 63.53328116 35.53538814 65.88069392 35.56762695 68.22875977 C35.56619186 68.91424896 35.56475677 69.59973816 35.5632782 70.30599976 C35.65929337 75.27669358 36.74425098 78.65387597 39 83 C48.85172701 90.57825155 62.40279957 87 74 87 C74 58.29 74 29.58 74 0 C85.88 0 97.76 0 110 0 C110 37.95 110 75.9 110 115 C42.57326908 128.48534618 42.57326908 128.48534618 18.4375 115.1875 C8.67527255 108.61928992 3.22672508 100.72031232 0.4238472 89.23353577 C-0.2804998 85.52185801 -0.2615683 81.87259173 -0.22705078 78.10546875 C-0.22734283 77.2557399 -0.22763489 76.40601105 -0.22793579 75.53053284 C-0.22655341 72.74941441 -0.2110441 69.96857105 -0.1953125 67.1875 C-0.19157848 65.24837388 -0.18873335 63.30924587 -0.18673706 61.37011719 C-0.17913122 56.28695389 -0.15950911 51.20390639 -0.1373291 46.12078857 C-0.11680477 40.92559373 -0.1077213 35.73038002 -0.09765625 30.53515625 C-0.07626016 20.35671199 -0.04110307 10.17838378 0 0 Z " fill="#2F4BB2" transform="translate(264,68)"/>
<path d="M0 0 C-0.69087217 3.9332133 -1.38471462 7.86588988 -2.08129883 11.7980957 C-2.31779108 13.13551692 -2.553475 14.47308134 -2.78833008 15.81079102 C-3.12628406 17.73491378 -3.46739839 19.65848062 -3.80859375 21.58203125 C-4.01282959 22.73936768 -4.21706543 23.8967041 -4.42749023 25.08911133 C-5 28 -5 28 -6 31 C-7.258125 30.731875 -8.51625 30.46375 -9.8125 30.1875 C-15.04616123 29.14824441 -20.29776148 28.24021842 -25.5625 27.375 C-26.74839722 27.17233521 -26.74839722 27.17233521 -27.95825195 26.96557617 C-36.35196753 25.614274 -45.44169372 24.52605858 -53 29.25 C-54.21529286 31.09189663 -54.21529286 31.09189663 -54.25 33.9375 C-52.82979695 37.41699748 -52.53315186 37.53187905 -49.265625 38.9140625 C-42.0018242 41.9416066 -34.4482231 44.19309305 -26.94921875 46.55664062 C-15.77455067 50.17492541 -4.48847902 54.60680368 1.3515625 65.52734375 C6.13256675 76.96391866 6.27361196 88.35022505 2 100 C-4.39035535 112.1572614 -14.19208152 117.98508255 -27 122 C-46.91731084 126.72943678 -70.68351942 122.99917128 -90 117 C-89.60179902 109.87357553 -88.73900201 102.89800053 -87.5 95.875 C-87.36940186 95.12871338 -87.23880371 94.38242676 -87.10424805 93.61352539 C-86.13217405 88.26434811 -86.13217405 88.26434811 -85 86 C-76.81708543 87.80301508 -76.81708543 87.80301508 -72.82421875 88.765625 C-60.97548985 91.60597834 -47.85947521 94.31684898 -36 90 C-33.47196574 88.06395627 -33.47196574 88.06395627 -32 86 C-33.12315273 82.23120044 -33.12315273 82.23120044 -36.02026367 79.75317383 C-36.83213135 79.46982178 -37.64399902 79.18646973 -38.48046875 78.89453125 C-39.37813965 78.57307129 -40.27581055 78.25161133 -41.20068359 77.92041016 C-42.12445801 77.6166748 -43.04823242 77.31293945 -44 77 C-44.85029785 76.71817871 -45.7005957 76.43635742 -46.57666016 76.14599609 C-48.27754347 75.59496883 -49.9809757 75.05175232 -51.68676758 74.51611328 C-66.19130066 69.93885756 -78.88676243 65.2271613 -87.37109375 51.8359375 C-91.6995363 43.11914316 -91.42696033 31.73309725 -89.1171875 22.453125 C-84.65784892 10.81749982 -77.15436102 4.24993022 -66 -1 C-44.72901644 -8.63072078 -21.44173745 -4.97560723 0 0 Z " fill="#2F4BB1" transform="translate(987,67)"/>
<path d="M0 0 C11.55 0 23.1 0 35 0 C35 11.22 35 22.44 35 34 C44.57 34 54.14 34 64 34 C64 44.23 64 54.46 64 65 C54.43 65 44.86 65 35 65 C35.07410411 71.85079731 35.15703351 78.70031446 35.26245117 85.55053711 C35.29563748 87.87924495 35.32368888 90.20803202 35.34643555 92.53686523 C35.38009669 95.89080457 35.43241999 99.24402206 35.48828125 102.59765625 C35.49467117 103.63334244 35.5010611 104.66902863 35.50764465 105.73609924 C35.62530001 111.56406513 36.15198161 115.8686903 39 121 C45.64280132 125.62983122 57.44427463 122.80441183 65 122 C67.19695909 131.57246459 68.05819188 141.2412648 69 151 C59.27245872 154.89101651 50.61289302 156.36174097 40.125 156.375 C39.11308594 156.39949219 38.10117188 156.42398438 37.05859375 156.44921875 C27.31197917 156.48665773 17.15224518 154.04469262 10 147 C3.07312544 138.59932234 -0.1367217 128.849035 -0.11352539 118.01635742 C-0.11344986 116.83551071 -0.11337433 115.654664 -0.11329651 114.43803406 C-0.10813522 113.17328751 -0.10297394 111.90854095 -0.09765625 110.60546875 C-0.0962413 109.30297684 -0.09482635 108.00048492 -0.09336853 106.65852356 C-0.08956355 103.20783546 -0.07975064 99.75718992 -0.06866455 96.30651855 C-0.05840689 92.78052343 -0.0538616 89.25452139 -0.04882812 85.72851562 C-0.03812644 78.81899124 -0.02054612 71.90950205 0 65 C-5.94 65 -11.88 65 -18 65 C-18 54.77 -18 44.54 -18 34 C-12.06 34 -6.12 34 0 34 C0 22.78 0 11.56 0 0 Z " fill="#2F4BB2" transform="translate(1010,34)"/>
<path d="M0 0 C11.88 0 23.76 0 36 0 C36 11.22 36 22.44 36 34 C45.24 34 54.48 34 64 34 C64 44.23 64 54.46 64 65 C54.76 65 45.52 65 36 65 C36.07399315 72.17223276 36.15682222 79.34321716 36.26245117 86.51489258 C36.29569417 88.95427983 36.32372801 91.39374388 36.34643555 93.83325195 C36.37999217 97.34099032 36.43231049 100.84802525 36.48828125 104.35546875 C36.49467117 105.44522507 36.5010611 106.53498138 36.50764465 107.65776062 C36.5379413 114.85905099 36.5379413 114.85905099 40 121 C47.25682328 125.48215556 57.23601392 122.62535783 65 121 C65.51083558 124.31092101 66.00663214 127.62393479 66.5 130.9375 C66.64308594 131.86369141 66.78617187 132.78988281 66.93359375 133.74414062 C67.79167513 139.56683571 68.14486785 145.11474367 68 151 C65.81426438 151.65177969 63.6263177 152.29614674 61.4375 152.9375 C60.21933594 153.29714844 59.00117188 153.65679687 57.74609375 154.02734375 C44.15607442 157.55593063 28.12441628 157.90940101 15.625 150.75 C7.5440137 145.1000158 3.38269611 137.68609435 1.39846802 128.09126282 C0.15795999 120.30843263 -0.26826295 112.79131475 -0.1953125 104.91796875 C-0.1924826 103.73777664 -0.18965271 102.55758453 -0.18673706 101.34162903 C-0.17566622 97.62347671 -0.15058698 93.90557779 -0.125 90.1875 C-0.11495325 87.6451858 -0.10583039 85.10286778 -0.09765625 82.56054688 C-0.07576996 76.37360235 -0.04133253 70.18684393 0 64 C-5.61 64 -11.22 64 -17 64 C-17 54.1 -17 44.2 -17 34 C-11.39 34 -5.78 34 0 34 C0 22.78 0 11.56 0 0 Z " fill="#2F4CB2" transform="translate(401,34)"/>
<path d="M0 0 C1.10214844 0.56976563 2.20429687 1.13953125 3.33984375 1.7265625 C22.99081943 12.4693906 40.6681908 26.68161257 57.91210938 40.86279297 C58.53666016 41.37600098 59.16121094 41.88920898 59.8046875 42.41796875 C60.35108887 42.86938232 60.89749023 43.3207959 61.46044922 43.78588867 C62.91628182 44.93397867 64.45732418 45.97154945 66 47 C63.37300665 63.44856064 49.43203585 77.74771314 38 89 C33.22237874 87.4704414 29.97704234 84.77920882 26.1875 81.625 C20.8921314 77.30342464 15.54358003 73.0838362 10.0625 69 C9.39734375 68.50435547 8.7321875 68.00871094 8.046875 67.49804688 C6.69932456 66.49518839 5.35134344 65.49290834 4.00292969 64.49121094 C1.37852575 62.53730318 -1.23528013 60.56948552 -3.84936523 58.60180664 C-17.4961252 48.33576373 -31.24436343 38.20764106 -45.12646484 28.26196289 C-47.09127173 26.85059399 -49.04697709 25.4276079 -51 24 C-51.98871094 23.28457031 -52.97742187 22.56914063 -53.99609375 21.83203125 C-56 20 -56 20 -56.1875 16.8125 C-53.28130985 7.48210003 -47.48993095 1.67205042 -39 -3 C-26.89723253 -8.18938807 -11.29493512 -5.91433384 0 0 Z " fill="#D51A20" transform="translate(1154,71)"/>
<path d="M0 0 C2.82338336 1.31365216 5.13934873 2.77796612 7.5390625 4.7578125 C8.19648437 5.29664062 8.85390625 5.83546875 9.53125 6.390625 C10.2221875 6.96296875 10.913125 7.5353125 11.625 8.125 C13.07529199 9.31538303 14.52581198 10.50548833 15.9765625 11.6953125 C16.67426758 12.26926758 17.37197266 12.84322266 18.09082031 13.43457031 C20.37799424 15.30993594 22.68503047 17.15908566 25 19 C31.33814966 24.05568125 37.61900947 29.18190415 43.90771484 34.29882812 C45.93321003 35.94569515 47.96040135 37.5904457 49.98828125 39.234375 C57.7232629 45.50704083 65.42844846 51.81357502 73.09912109 58.16479492 C77.5231434 61.8179098 82.00125213 65.37142879 86.62890625 68.765625 C87.08136719 69.17296875 87.53382812 69.5803125 88 70 C88 70.66 88 71.32 88 72 C85.89018724 73.80969715 83.77348839 75.50932403 81.5625 77.1875 C80.27318335 78.17544967 78.98412093 79.1637312 77.6953125 80.15234375 C77.06270508 80.63558105 76.43009766 81.11881836 75.77832031 81.61669922 C74.23821132 82.81470273 72.73626598 84.06146498 71.2421875 85.31640625 C70.48164062 85.95449219 69.72109375 86.59257812 68.9375 87.25 C67.96103516 88.09304687 67.96103516 88.09304687 66.96484375 88.953125 C65 90 65 90 62.625 89.94140625 C59.22181819 88.72091992 56.89982752 86.93088507 54.0625 84.6875 C53.50111328 84.2438208 52.93972656 83.8001416 52.36132812 83.34301758 C50.5623523 81.90936533 48.77902117 80.45832476 47 79 C46.41976074 78.525625 45.83952148 78.05125 45.24169922 77.5625 C27.30528668 62.79192699 12.54727293 47.42832369 3 26 C2.6390625 25.2471875 2.278125 24.494375 1.90625 23.71875 C-1.17859537 16.29227041 -0.24434461 7.88237609 0 0 Z " fill="#2F48A2" transform="translate(1096,96)"/>
<path d="M0 0 C6.81194877 5.50753305 11.30479965 12.5451922 12.51171875 21.3046875 C12.62219535 24.24387051 12.60626314 27.1764983 12.57421875 30.1171875 C12.56970703 30.90544922 12.56519531 31.69371094 12.56054688 32.50585938 C12.54883187 34.43883511 12.53089873 36.37177143 12.51171875 38.3046875 C8.87249253 36.62932208 5.63130154 34.44183362 2.33203125 32.19140625 C1.09048085 31.35244244 -0.15130957 30.51383375 -1.39331055 29.67553711 C-2.04165863 29.23708466 -2.69000671 28.7986322 -3.35800171 28.34689331 C-14.34982736 20.92115053 -25.39216231 13.74746103 -36.92333984 7.17651367 C-37.7530127 6.70189697 -38.58268555 6.22728027 -39.4375 5.73828125 C-40.15252686 5.33665771 -40.86755371 4.93503418 -41.60424805 4.52124023 C-43.50658143 3.29287076 -44.95458129 1.96271716 -46.48828125 0.3046875 C-44.9297637 -0.51542562 -43.36626409 -1.32607463 -41.80078125 -2.1328125 C-40.93066406 -2.58527344 -40.06054688 -3.03773437 -39.1640625 -3.50390625 C-27.44127682 -8.72354075 -10.42553316 -7.10311051 0 0 Z " fill="#F9AA1A" transform="translate(1209.48828125,71.6953125)"/>
<path d="M0 0 C4.84115976 2.33092877 7.70301121 5.14098526 10 10 C10.76107013 15.14110638 10.79474102 20.18410788 8.5 24.9375 C4.57337499 29.74761564 0.60536357 31.6278052 -5.5 32.5 C-10.56389549 31.77658636 -14.84801872 30.32679209 -18.39453125 26.4921875 C-21.40240809 21.92191527 -21.79076314 17.34009182 -21 12 C-17.57768276 2.11330575 -9.82379724 -1.07306093 0 0 Z M-11 6 C-10.38511719 6.03738281 -9.77023437 6.07476562 -9.13671875 6.11328125 C-7.92435547 6.21189453 -7.92435547 6.21189453 -6.6875 6.3125 C-5.88699219 6.37050781 -5.08648438 6.42851562 -4.26171875 6.48828125 C-1.60204678 7.09003778 -0.60912431 7.8210874 1 10 C0.71263151 12.87368492 -0.08596715 15.25790144 -1 18 C-0.34 18 0.32 18 1 18 C1.66 19.65 2.32 21.3 3 23 C3.66 23 4.32 23 5 23 C7.46094018 19.30858974 7.83040989 15.28359954 7 11 C5.2524257 7.97910019 3.16782234 5.58391117 0 4 C-1.49649362 3.87994547 -2.99874793 3.82468549 -4.5 3.8125 C-5.2940625 3.79832031 -6.088125 3.78414062 -6.90625 3.76953125 C-9.22033317 3.80333697 -9.22033317 3.80333697 -11 6 Z M-12 6 C-15.32203226 9.52965928 -16.90216599 12.10829961 -17 17 C-15.74073438 21.29631801 -14.58189933 23.49568725 -11.1875 26.4375 C-7.69354692 28.1502221 -5.82997759 28.58282268 -2 28 C0.34261608 26.62073227 0.34261608 26.62073227 2 25 C1.4225 24.773125 0.845 24.54625 0.25 24.3125 C-2.5663661 22.66961977 -4.08077114 20.60466773 -6 18 C-6 20.31 -6 22.62 -6 25 C-7.65 25 -9.3 25 -11 25 C-11 18.73 -11 12.46 -11 6 C-11.33 6 -11.66 6 -12 6 Z M-7 10 C-7 11.32 -7 12.64 -7 14 C-5.68 13.67 -4.36 13.34 -3 13 C-3.33 12.01 -3.66 11.02 -4 10 C-4.99 10 -5.98 10 -7 10 Z " fill="#2F4BB1" transform="translate(1087,18)"/>
</svg>
